%TF.GenerationSoftware,KiCad,Pcbnew,(5.1.9)-1*%
%TF.CreationDate,2021-07-03T12:41:10-04:00*%
%TF.ProjectId,MK1_2,4d4b315f-322e-46b6-9963-61645f706362,rev?*%
%TF.SameCoordinates,Original*%
%TF.FileFunction,Copper,L2,Bot*%
%TF.FilePolarity,Positive*%
%FSLAX45Y45*%
G04 Gerber Fmt 4.5, Leading zero omitted, Abs format (unit mm)*
G04 Created by KiCad (PCBNEW (5.1.9)-1) date 2021-07-03 12:41:10*
%MOMM*%
%LPD*%
G01*
G04 APERTURE LIST*
%ADD10C,0.127000*%
%ADD11C,0.150000*%
%ADD12C,0.300000*%
%ADD13C,0.400000*%
%TA.AperFunction,ViaPad*%
%ADD14C,0.762000*%
%TD*%
%TA.AperFunction,ViaPad*%
%ADD15C,1.778000*%
%TD*%
%TA.AperFunction,ViaPad*%
%ADD16C,2.159000*%
%TD*%
%TA.AperFunction,ViaPad*%
%ADD17C,1.524000*%
%TD*%
%TA.AperFunction,Conductor*%
%ADD18C,0.381000*%
%TD*%
%TA.AperFunction,Conductor*%
%ADD19C,0.635000*%
%TD*%
%TA.AperFunction,Conductor*%
%ADD20C,0.508000*%
%TD*%
%TA.AperFunction,Conductor*%
%ADD21C,0.762000*%
%TD*%
G04 APERTURE END LIST*
D10*
D11*
X1970000Y-17190000D02*
X1970000Y-20390000D01*
X12770000Y-20390000D01*
X12770000Y-17190000D01*
X1970000Y-17190000D01*
D10*
D11*
X1000000Y-1000000D02*
X1000000Y-20590000D01*
X12970000Y-20590000D01*
X12970000Y-1000000D01*
X1000000Y-1000000D01*
D10*
D11*
X1200000Y-1200000D02*
X1200000Y-20390000D01*
X12770000Y-20390000D01*
X12770000Y-1200000D01*
X1200000Y-1200000D01*
D10*
D11*
X6000000Y-1200000D02*
X6000000Y-1000000D01*
D10*
D11*
X11000000Y-1200000D02*
X11000000Y-1000000D01*
D10*
D11*
X3606548Y-1158810D02*
X3532262Y-1158810D01*
X3569405Y-1158810D02*
X3569405Y-1028809D01*
X3557024Y-1047381D01*
X3544643Y-1059762D01*
X3532262Y-1065952D01*
D10*
D11*
X8532262Y-1041190D02*
X8538452Y-1035000D01*
X8550833Y-1028809D01*
X8581786Y-1028809D01*
X8594167Y-1035000D01*
X8600357Y-1041190D01*
X8606548Y-1053571D01*
X8606548Y-1065952D01*
X8600357Y-1084524D01*
X8526071Y-1158810D01*
X8606548Y-1158810D01*
D10*
D11*
X6000000Y-20390000D02*
X6000000Y-20590000D01*
D10*
D11*
X11000000Y-20390000D02*
X11000000Y-20590000D01*
D10*
D11*
X3606548Y-20548810D02*
X3532262Y-20548810D01*
X3569405Y-20548810D02*
X3569405Y-20418810D01*
X3557024Y-20437381D01*
X3544643Y-20449762D01*
X3532262Y-20455952D01*
D10*
D11*
X8532262Y-20431190D02*
X8538452Y-20425000D01*
X8550833Y-20418810D01*
X8581786Y-20418810D01*
X8594167Y-20425000D01*
X8600357Y-20431190D01*
X8606548Y-20443571D01*
X8606548Y-20455952D01*
X8600357Y-20474524D01*
X8526071Y-20548810D01*
X8606548Y-20548810D01*
D10*
D11*
X1000000Y-6000000D02*
X1200000Y-6000000D01*
D10*
D11*
X1000000Y-11000000D02*
X1200000Y-11000000D01*
D10*
D11*
X1000000Y-16000000D02*
X1200000Y-16000000D01*
D10*
D11*
X1069048Y-3521667D02*
X1130952Y-3521667D01*
X1056667Y-3558809D02*
X1100000Y-3428809D01*
X1143333Y-3558809D01*
D10*
D11*
X1109286Y-8490714D02*
X1127857Y-8496905D01*
X1134048Y-8503095D01*
X1140238Y-8515476D01*
X1140238Y-8534048D01*
X1134048Y-8546429D01*
X1127857Y-8552619D01*
X1115476Y-8558810D01*
X1065952Y-8558810D01*
X1065952Y-8428810D01*
X1109286Y-8428810D01*
X1121667Y-8435000D01*
X1127857Y-8441190D01*
X1134048Y-8453571D01*
X1134048Y-8465952D01*
X1127857Y-8478333D01*
X1121667Y-8484524D01*
X1109286Y-8490714D01*
X1065952Y-8490714D01*
D10*
D11*
X1140238Y-13546428D02*
X1134048Y-13552619D01*
X1115476Y-13558809D01*
X1103095Y-13558809D01*
X1084524Y-13552619D01*
X1072143Y-13540238D01*
X1065952Y-13527857D01*
X1059762Y-13503095D01*
X1059762Y-13484524D01*
X1065952Y-13459762D01*
X1072143Y-13447381D01*
X1084524Y-13435000D01*
X1103095Y-13428809D01*
X1115476Y-13428809D01*
X1134048Y-13435000D01*
X1140238Y-13441190D01*
D10*
D11*
X1065952Y-18558810D02*
X1065952Y-18428810D01*
X1096905Y-18428810D01*
X1115476Y-18435000D01*
X1127857Y-18447381D01*
X1134048Y-18459762D01*
X1140238Y-18484524D01*
X1140238Y-18503095D01*
X1134048Y-18527857D01*
X1127857Y-18540238D01*
X1115476Y-18552619D01*
X1096905Y-18558810D01*
X1065952Y-18558810D01*
D10*
D11*
X12970000Y-6000000D02*
X12770000Y-6000000D01*
D10*
D11*
X12970000Y-11000000D02*
X12770000Y-11000000D01*
D10*
D11*
X12970000Y-16000000D02*
X12770000Y-16000000D01*
D10*
D11*
X12839048Y-3521667D02*
X12900952Y-3521667D01*
X12826667Y-3558809D02*
X12870000Y-3428809D01*
X12913333Y-3558809D01*
D10*
D11*
X12879286Y-8490714D02*
X12897857Y-8496905D01*
X12904048Y-8503095D01*
X12910238Y-8515476D01*
X12910238Y-8534048D01*
X12904048Y-8546429D01*
X12897857Y-8552619D01*
X12885476Y-8558810D01*
X12835952Y-8558810D01*
X12835952Y-8428810D01*
X12879286Y-8428810D01*
X12891667Y-8435000D01*
X12897857Y-8441190D01*
X12904048Y-8453571D01*
X12904048Y-8465952D01*
X12897857Y-8478333D01*
X12891667Y-8484524D01*
X12879286Y-8490714D01*
X12835952Y-8490714D01*
D10*
D11*
X12910238Y-13546428D02*
X12904048Y-13552619D01*
X12885476Y-13558809D01*
X12873095Y-13558809D01*
X12854524Y-13552619D01*
X12842143Y-13540238D01*
X12835952Y-13527857D01*
X12829762Y-13503095D01*
X12829762Y-13484524D01*
X12835952Y-13459762D01*
X12842143Y-13447381D01*
X12854524Y-13435000D01*
X12873095Y-13428809D01*
X12885476Y-13428809D01*
X12904048Y-13435000D01*
X12910238Y-13441190D01*
D10*
D11*
X12835952Y-18558810D02*
X12835952Y-18428810D01*
X12866905Y-18428810D01*
X12885476Y-18435000D01*
X12897857Y-18447381D01*
X12904048Y-18459762D01*
X12910238Y-18484524D01*
X12910238Y-18503095D01*
X12904048Y-18527857D01*
X12897857Y-18540238D01*
X12885476Y-18552619D01*
X12866905Y-18558810D01*
X12835952Y-18558810D01*
D10*
D11*
X4313214Y-19967857D02*
X4313214Y-19817857D01*
X4348929Y-19817857D01*
X4370357Y-19825000D01*
X4384643Y-19839286D01*
X4391786Y-19853571D01*
X4398929Y-19882143D01*
X4398929Y-19903571D01*
X4391786Y-19932143D01*
X4384643Y-19946429D01*
X4370357Y-19960714D01*
X4348929Y-19967857D01*
X4313214Y-19967857D01*
X4527500Y-19967857D02*
X4527500Y-19889286D01*
X4520357Y-19875000D01*
X4506071Y-19867857D01*
X4477500Y-19867857D01*
X4463214Y-19875000D01*
X4527500Y-19960714D02*
X4513214Y-19967857D01*
X4477500Y-19967857D01*
X4463214Y-19960714D01*
X4456071Y-19946429D01*
X4456071Y-19932143D01*
X4463214Y-19917857D01*
X4477500Y-19910714D01*
X4513214Y-19910714D01*
X4527500Y-19903571D01*
X4577500Y-19867857D02*
X4634643Y-19867857D01*
X4598929Y-19817857D02*
X4598929Y-19946429D01*
X4606071Y-19960714D01*
X4620357Y-19967857D01*
X4634643Y-19967857D01*
X4741786Y-19960714D02*
X4727500Y-19967857D01*
X4698929Y-19967857D01*
X4684643Y-19960714D01*
X4677500Y-19946429D01*
X4677500Y-19889286D01*
X4684643Y-19875000D01*
X4698929Y-19867857D01*
X4727500Y-19867857D01*
X4741786Y-19875000D01*
X4748929Y-19889286D01*
X4748929Y-19903571D01*
X4677500Y-19917857D01*
X4813214Y-19953571D02*
X4820357Y-19960714D01*
X4813214Y-19967857D01*
X4806071Y-19960714D01*
X4813214Y-19953571D01*
X4813214Y-19967857D01*
X4813214Y-19875000D02*
X4820357Y-19882143D01*
X4813214Y-19889286D01*
X4806071Y-19882143D01*
X4813214Y-19875000D01*
X4813214Y-19889286D01*
D10*
D11*
X1970000Y-20040000D02*
X12770000Y-20040000D01*
D10*
D11*
X2113214Y-20247857D02*
X2113214Y-20097857D01*
X2198929Y-20247857D02*
X2134643Y-20162143D01*
X2198929Y-20097857D02*
X2113214Y-20183571D01*
X2263214Y-20247857D02*
X2263214Y-20147857D01*
X2263214Y-20097857D02*
X2256071Y-20105000D01*
X2263214Y-20112143D01*
X2270357Y-20105000D01*
X2263214Y-20097857D01*
X2263214Y-20112143D01*
X2420357Y-20233571D02*
X2413214Y-20240714D01*
X2391786Y-20247857D01*
X2377500Y-20247857D01*
X2356071Y-20240714D01*
X2341786Y-20226429D01*
X2334643Y-20212143D01*
X2327500Y-20183571D01*
X2327500Y-20162143D01*
X2334643Y-20133571D01*
X2341786Y-20119286D01*
X2356071Y-20105000D01*
X2377500Y-20097857D01*
X2391786Y-20097857D01*
X2413214Y-20105000D01*
X2420357Y-20112143D01*
X2548929Y-20247857D02*
X2548929Y-20169286D01*
X2541786Y-20155000D01*
X2527500Y-20147857D01*
X2498929Y-20147857D01*
X2484643Y-20155000D01*
X2548929Y-20240714D02*
X2534643Y-20247857D01*
X2498929Y-20247857D01*
X2484643Y-20240714D01*
X2477500Y-20226429D01*
X2477500Y-20212143D01*
X2484643Y-20197857D01*
X2498929Y-20190714D01*
X2534643Y-20190714D01*
X2548929Y-20183571D01*
X2684643Y-20247857D02*
X2684643Y-20097857D01*
X2684643Y-20240714D02*
X2670357Y-20247857D01*
X2641786Y-20247857D01*
X2627500Y-20240714D01*
X2620357Y-20233571D01*
X2613214Y-20219286D01*
X2613214Y-20176429D01*
X2620357Y-20162143D01*
X2627500Y-20155000D01*
X2641786Y-20147857D01*
X2670357Y-20147857D01*
X2684643Y-20155000D01*
X2870357Y-20169286D02*
X2920357Y-20169286D01*
X2941786Y-20247857D02*
X2870357Y-20247857D01*
X2870357Y-20097857D01*
X2941786Y-20097857D01*
X3006071Y-20233571D02*
X3013214Y-20240714D01*
X3006071Y-20247857D01*
X2998928Y-20240714D01*
X3006071Y-20233571D01*
X3006071Y-20247857D01*
X3077500Y-20247857D02*
X3077500Y-20097857D01*
X3113214Y-20097857D01*
X3134643Y-20105000D01*
X3148928Y-20119286D01*
X3156071Y-20133571D01*
X3163214Y-20162143D01*
X3163214Y-20183571D01*
X3156071Y-20212143D01*
X3148928Y-20226429D01*
X3134643Y-20240714D01*
X3113214Y-20247857D01*
X3077500Y-20247857D01*
X3227500Y-20233571D02*
X3234643Y-20240714D01*
X3227500Y-20247857D01*
X3220357Y-20240714D01*
X3227500Y-20233571D01*
X3227500Y-20247857D01*
X3291786Y-20205000D02*
X3363214Y-20205000D01*
X3277500Y-20247857D02*
X3327500Y-20097857D01*
X3377500Y-20247857D01*
X3427500Y-20233571D02*
X3434643Y-20240714D01*
X3427500Y-20247857D01*
X3420357Y-20240714D01*
X3427500Y-20233571D01*
X3427500Y-20247857D01*
X3727500Y-20147857D02*
X3727500Y-20297857D01*
X3727500Y-20155000D02*
X3741786Y-20147857D01*
X3770357Y-20147857D01*
X3784643Y-20155000D01*
X3791786Y-20162143D01*
X3798928Y-20176429D01*
X3798928Y-20219286D01*
X3791786Y-20233571D01*
X3784643Y-20240714D01*
X3770357Y-20247857D01*
X3741786Y-20247857D01*
X3727500Y-20240714D01*
X3927500Y-20240714D02*
X3913214Y-20247857D01*
X3884643Y-20247857D01*
X3870357Y-20240714D01*
X3863214Y-20233571D01*
X3856071Y-20219286D01*
X3856071Y-20176429D01*
X3863214Y-20162143D01*
X3870357Y-20155000D01*
X3884643Y-20147857D01*
X3913214Y-20147857D01*
X3927500Y-20155000D01*
X3991786Y-20247857D02*
X3991786Y-20097857D01*
X3991786Y-20155000D02*
X4006071Y-20147857D01*
X4034643Y-20147857D01*
X4048928Y-20155000D01*
X4056071Y-20162143D01*
X4063214Y-20176429D01*
X4063214Y-20219286D01*
X4056071Y-20233571D01*
X4048928Y-20240714D01*
X4034643Y-20247857D01*
X4006071Y-20247857D01*
X3991786Y-20240714D01*
X4127500Y-20147857D02*
X4127500Y-20247857D01*
X4127500Y-20162143D02*
X4134643Y-20155000D01*
X4148928Y-20147857D01*
X4170357Y-20147857D01*
X4184643Y-20155000D01*
X4191786Y-20169286D01*
X4191786Y-20247857D01*
X4320357Y-20240714D02*
X4306071Y-20247857D01*
X4277500Y-20247857D01*
X4263214Y-20240714D01*
X4256071Y-20226429D01*
X4256071Y-20169286D01*
X4263214Y-20155000D01*
X4277500Y-20147857D01*
X4306071Y-20147857D01*
X4320357Y-20155000D01*
X4327500Y-20169286D01*
X4327500Y-20183571D01*
X4256071Y-20197857D01*
X4377500Y-20147857D02*
X4406071Y-20247857D01*
X4434643Y-20176429D01*
X4463214Y-20247857D01*
X4491786Y-20147857D01*
X4706071Y-20305000D02*
X4698929Y-20297857D01*
X4684643Y-20276429D01*
X4677500Y-20262143D01*
X4670357Y-20240714D01*
X4663214Y-20205000D01*
X4663214Y-20176429D01*
X4670357Y-20140714D01*
X4677500Y-20119286D01*
X4684643Y-20105000D01*
X4698929Y-20083571D01*
X4706071Y-20076429D01*
X4834643Y-20097857D02*
X4763214Y-20097857D01*
X4756071Y-20169286D01*
X4763214Y-20162143D01*
X4777500Y-20155000D01*
X4813214Y-20155000D01*
X4827500Y-20162143D01*
X4834643Y-20169286D01*
X4841786Y-20183571D01*
X4841786Y-20219286D01*
X4834643Y-20233571D01*
X4827500Y-20240714D01*
X4813214Y-20247857D01*
X4777500Y-20247857D01*
X4763214Y-20240714D01*
X4756071Y-20233571D01*
X4906071Y-20233571D02*
X4913214Y-20240714D01*
X4906071Y-20247857D01*
X4898929Y-20240714D01*
X4906071Y-20233571D01*
X4906071Y-20247857D01*
X5056071Y-20247857D02*
X4970357Y-20247857D01*
X5013214Y-20247857D02*
X5013214Y-20097857D01*
X4998929Y-20119286D01*
X4984643Y-20133571D01*
X4970357Y-20140714D01*
X5120357Y-20233571D02*
X5127500Y-20240714D01*
X5120357Y-20247857D01*
X5113214Y-20240714D01*
X5120357Y-20233571D01*
X5120357Y-20247857D01*
X5198929Y-20247857D02*
X5227500Y-20247857D01*
X5241786Y-20240714D01*
X5248929Y-20233571D01*
X5263214Y-20212143D01*
X5270357Y-20183571D01*
X5270357Y-20126429D01*
X5263214Y-20112143D01*
X5256071Y-20105000D01*
X5241786Y-20097857D01*
X5213214Y-20097857D01*
X5198929Y-20105000D01*
X5191786Y-20112143D01*
X5184643Y-20126429D01*
X5184643Y-20162143D01*
X5191786Y-20176429D01*
X5198929Y-20183571D01*
X5213214Y-20190714D01*
X5241786Y-20190714D01*
X5256071Y-20183571D01*
X5263214Y-20176429D01*
X5270357Y-20162143D01*
X5320357Y-20305000D02*
X5327500Y-20297857D01*
X5341786Y-20276429D01*
X5348929Y-20262143D01*
X5356071Y-20240714D01*
X5363214Y-20205000D01*
X5363214Y-20176429D01*
X5356071Y-20140714D01*
X5348929Y-20119286D01*
X5341786Y-20105000D01*
X5327500Y-20083571D01*
X5320357Y-20076429D01*
X5434643Y-20190714D02*
X5548929Y-20190714D01*
X5698928Y-20247857D02*
X5613214Y-20247857D01*
X5656071Y-20247857D02*
X5656071Y-20097857D01*
X5641786Y-20119286D01*
X5627500Y-20133571D01*
X5613214Y-20140714D01*
D10*
D11*
X1970000Y-19740000D02*
X12770000Y-19740000D01*
D10*
D12*
X10710929Y-19967857D02*
X10660929Y-19896429D01*
X10625214Y-19967857D02*
X10625214Y-19817857D01*
X10682357Y-19817857D01*
X10696643Y-19825000D01*
X10703786Y-19832143D01*
X10710929Y-19846429D01*
X10710929Y-19867857D01*
X10703786Y-19882143D01*
X10696643Y-19889286D01*
X10682357Y-19896429D01*
X10625214Y-19896429D01*
X10832357Y-19960714D02*
X10818071Y-19967857D01*
X10789500Y-19967857D01*
X10775214Y-19960714D01*
X10768071Y-19946429D01*
X10768071Y-19889286D01*
X10775214Y-19875000D01*
X10789500Y-19867857D01*
X10818071Y-19867857D01*
X10832357Y-19875000D01*
X10839500Y-19889286D01*
X10839500Y-19903571D01*
X10768071Y-19917857D01*
X10889500Y-19867857D02*
X10925214Y-19967857D01*
X10960929Y-19867857D01*
X11018071Y-19953571D02*
X11025214Y-19960714D01*
X11018071Y-19967857D01*
X11010929Y-19960714D01*
X11018071Y-19953571D01*
X11018071Y-19967857D01*
X11018071Y-19875000D02*
X11025214Y-19882143D01*
X11018071Y-19889286D01*
X11010929Y-19882143D01*
X11018071Y-19875000D01*
X11018071Y-19889286D01*
D10*
D11*
X2106071Y-19960714D02*
X2127500Y-19967857D01*
X2163214Y-19967857D01*
X2177500Y-19960714D01*
X2184643Y-19953571D01*
X2191786Y-19939286D01*
X2191786Y-19925000D01*
X2184643Y-19910714D01*
X2177500Y-19903571D01*
X2163214Y-19896429D01*
X2134643Y-19889286D01*
X2120357Y-19882143D01*
X2113214Y-19875000D01*
X2106071Y-19860714D01*
X2106071Y-19846429D01*
X2113214Y-19832143D01*
X2120357Y-19825000D01*
X2134643Y-19817857D01*
X2170357Y-19817857D01*
X2191786Y-19825000D01*
X2256071Y-19967857D02*
X2256071Y-19867857D01*
X2256071Y-19817857D02*
X2248929Y-19825000D01*
X2256071Y-19832143D01*
X2263214Y-19825000D01*
X2256071Y-19817857D01*
X2256071Y-19832143D01*
X2313214Y-19867857D02*
X2391786Y-19867857D01*
X2313214Y-19967857D01*
X2391786Y-19967857D01*
X2506071Y-19960714D02*
X2491786Y-19967857D01*
X2463214Y-19967857D01*
X2448929Y-19960714D01*
X2441786Y-19946429D01*
X2441786Y-19889286D01*
X2448929Y-19875000D01*
X2463214Y-19867857D01*
X2491786Y-19867857D01*
X2506071Y-19875000D01*
X2513214Y-19889286D01*
X2513214Y-19903571D01*
X2441786Y-19917857D01*
X2577500Y-19953571D02*
X2584643Y-19960714D01*
X2577500Y-19967857D01*
X2570357Y-19960714D01*
X2577500Y-19953571D01*
X2577500Y-19967857D01*
X2577500Y-19875000D02*
X2584643Y-19882143D01*
X2577500Y-19889286D01*
X2570357Y-19882143D01*
X2577500Y-19875000D01*
X2577500Y-19889286D01*
X2763214Y-19817857D02*
X2763214Y-19939286D01*
X2770357Y-19953571D01*
X2777500Y-19960714D01*
X2791786Y-19967857D01*
X2820357Y-19967857D01*
X2834643Y-19960714D01*
X2841786Y-19953571D01*
X2848928Y-19939286D01*
X2848928Y-19817857D01*
X2913214Y-19960714D02*
X2927500Y-19967857D01*
X2956071Y-19967857D01*
X2970357Y-19960714D01*
X2977500Y-19946429D01*
X2977500Y-19939286D01*
X2970357Y-19925000D01*
X2956071Y-19917857D01*
X2934643Y-19917857D01*
X2920357Y-19910714D01*
X2913214Y-19896429D01*
X2913214Y-19889286D01*
X2920357Y-19875000D01*
X2934643Y-19867857D01*
X2956071Y-19867857D01*
X2970357Y-19875000D01*
X3098928Y-19960714D02*
X3084643Y-19967857D01*
X3056071Y-19967857D01*
X3041786Y-19960714D01*
X3034643Y-19946429D01*
X3034643Y-19889286D01*
X3041786Y-19875000D01*
X3056071Y-19867857D01*
X3084643Y-19867857D01*
X3098928Y-19875000D01*
X3106071Y-19889286D01*
X3106071Y-19903571D01*
X3034643Y-19917857D01*
X3170357Y-19967857D02*
X3170357Y-19867857D01*
X3170357Y-19896429D02*
X3177500Y-19882143D01*
X3184643Y-19875000D01*
X3198928Y-19867857D01*
X3213214Y-19867857D01*
D10*
D11*
X10613214Y-20247857D02*
X10613214Y-20097857D01*
X10748929Y-20247857D02*
X10748929Y-20097857D01*
X10748929Y-20240714D02*
X10734643Y-20247857D01*
X10706071Y-20247857D01*
X10691786Y-20240714D01*
X10684643Y-20233571D01*
X10677500Y-20219286D01*
X10677500Y-20176429D01*
X10684643Y-20162143D01*
X10691786Y-20155000D01*
X10706071Y-20147857D01*
X10734643Y-20147857D01*
X10748929Y-20155000D01*
X10820357Y-20233571D02*
X10827500Y-20240714D01*
X10820357Y-20247857D01*
X10813214Y-20240714D01*
X10820357Y-20233571D01*
X10820357Y-20247857D01*
X10820357Y-20155000D02*
X10827500Y-20162143D01*
X10820357Y-20169286D01*
X10813214Y-20162143D01*
X10820357Y-20155000D01*
X10820357Y-20169286D01*
X11084643Y-20247857D02*
X10998929Y-20247857D01*
X11041786Y-20247857D02*
X11041786Y-20097857D01*
X11027500Y-20119286D01*
X11013214Y-20133571D01*
X10998929Y-20140714D01*
X11256071Y-20090714D02*
X11127500Y-20283571D01*
X11384643Y-20247857D02*
X11298928Y-20247857D01*
X11341786Y-20247857D02*
X11341786Y-20097857D01*
X11327500Y-20119286D01*
X11313214Y-20133571D01*
X11298928Y-20140714D01*
D10*
D11*
X1970000Y-19340000D02*
X12770000Y-19340000D01*
D10*
D13*
X2141238Y-19410476D02*
X2255524Y-19410476D01*
X2173381Y-19610476D02*
X2198381Y-19410476D01*
X2297190Y-19610476D02*
X2313857Y-19477143D01*
X2322190Y-19410476D02*
X2311476Y-19420000D01*
X2319810Y-19429524D01*
X2330524Y-19420000D01*
X2322190Y-19410476D01*
X2319810Y-19429524D01*
X2380524Y-19477143D02*
X2456714Y-19477143D01*
X2417429Y-19410476D02*
X2396000Y-19581905D01*
X2403143Y-19600952D01*
X2421000Y-19610476D01*
X2440048Y-19610476D01*
X2535286Y-19610476D02*
X2517429Y-19600952D01*
X2510286Y-19581905D01*
X2531714Y-19410476D01*
X2688857Y-19600952D02*
X2668619Y-19610476D01*
X2630524Y-19610476D01*
X2612667Y-19600952D01*
X2605524Y-19581905D01*
X2615048Y-19505714D01*
X2626952Y-19486667D01*
X2647190Y-19477143D01*
X2685286Y-19477143D01*
X2703143Y-19486667D01*
X2710286Y-19505714D01*
X2707905Y-19524762D01*
X2610286Y-19543810D01*
X2785286Y-19591429D02*
X2793619Y-19600952D01*
X2782905Y-19610476D01*
X2774571Y-19600952D01*
X2785286Y-19591429D01*
X2782905Y-19610476D01*
X2798381Y-19486667D02*
X2806714Y-19496190D01*
X2796000Y-19505714D01*
X2787667Y-19496190D01*
X2798381Y-19486667D01*
X2796000Y-19505714D01*
D10*
D11*
X2163214Y-19149286D02*
X2113214Y-19149286D01*
X2113214Y-19227857D02*
X2113214Y-19077857D01*
X2184643Y-19077857D01*
X2241786Y-19227857D02*
X2241786Y-19127857D01*
X2241786Y-19077857D02*
X2234643Y-19085000D01*
X2241786Y-19092143D01*
X2248929Y-19085000D01*
X2241786Y-19077857D01*
X2241786Y-19092143D01*
X2334643Y-19227857D02*
X2320357Y-19220714D01*
X2313214Y-19206429D01*
X2313214Y-19077857D01*
X2448929Y-19220714D02*
X2434643Y-19227857D01*
X2406071Y-19227857D01*
X2391786Y-19220714D01*
X2384643Y-19206429D01*
X2384643Y-19149286D01*
X2391786Y-19135000D01*
X2406071Y-19127857D01*
X2434643Y-19127857D01*
X2448929Y-19135000D01*
X2456071Y-19149286D01*
X2456071Y-19163571D01*
X2384643Y-19177857D01*
X2520357Y-19213571D02*
X2527500Y-19220714D01*
X2520357Y-19227857D01*
X2513214Y-19220714D01*
X2520357Y-19213571D01*
X2520357Y-19227857D01*
X2520357Y-19135000D02*
X2527500Y-19142143D01*
X2520357Y-19149286D01*
X2513214Y-19142143D01*
X2520357Y-19135000D01*
X2520357Y-19149286D01*
X2706071Y-19227857D02*
X2706071Y-19077857D01*
X2756071Y-19185000D01*
X2806071Y-19077857D01*
X2806071Y-19227857D01*
X2877500Y-19227857D02*
X2877500Y-19077857D01*
X2963214Y-19227857D02*
X2898928Y-19142143D01*
X2963214Y-19077857D02*
X2877500Y-19163571D01*
X3106071Y-19227857D02*
X3020357Y-19227857D01*
X3063214Y-19227857D02*
X3063214Y-19077857D01*
X3048928Y-19099286D01*
X3034643Y-19113571D01*
X3020357Y-19120714D01*
X3134643Y-19242143D02*
X3248928Y-19242143D01*
X3277500Y-19092143D02*
X3284643Y-19085000D01*
X3298928Y-19077857D01*
X3334643Y-19077857D01*
X3348928Y-19085000D01*
X3356071Y-19092143D01*
X3363214Y-19106429D01*
X3363214Y-19120714D01*
X3356071Y-19142143D01*
X3270357Y-19227857D01*
X3363214Y-19227857D01*
X3427500Y-19213571D02*
X3434643Y-19220714D01*
X3427500Y-19227857D01*
X3420357Y-19220714D01*
X3427500Y-19213571D01*
X3427500Y-19227857D01*
X3498928Y-19227857D02*
X3498928Y-19077857D01*
X3513214Y-19170714D02*
X3556071Y-19227857D01*
X3556071Y-19127857D02*
X3498928Y-19185000D01*
X3620357Y-19227857D02*
X3620357Y-19127857D01*
X3620357Y-19077857D02*
X3613214Y-19085000D01*
X3620357Y-19092143D01*
X3627500Y-19085000D01*
X3620357Y-19077857D01*
X3620357Y-19092143D01*
X3756071Y-19220714D02*
X3741786Y-19227857D01*
X3713214Y-19227857D01*
X3698928Y-19220714D01*
X3691786Y-19213571D01*
X3684643Y-19199286D01*
X3684643Y-19156429D01*
X3691786Y-19142143D01*
X3698928Y-19135000D01*
X3713214Y-19127857D01*
X3741786Y-19127857D01*
X3756071Y-19135000D01*
X3884643Y-19227857D02*
X3884643Y-19149286D01*
X3877500Y-19135000D01*
X3863214Y-19127857D01*
X3834643Y-19127857D01*
X3820357Y-19135000D01*
X3884643Y-19220714D02*
X3870357Y-19227857D01*
X3834643Y-19227857D01*
X3820357Y-19220714D01*
X3813214Y-19206429D01*
X3813214Y-19192143D01*
X3820357Y-19177857D01*
X3834643Y-19170714D01*
X3870357Y-19170714D01*
X3884643Y-19163571D01*
X4020357Y-19227857D02*
X4020357Y-19077857D01*
X4020357Y-19220714D02*
X4006071Y-19227857D01*
X3977500Y-19227857D01*
X3963214Y-19220714D01*
X3956071Y-19213571D01*
X3948928Y-19199286D01*
X3948928Y-19156429D01*
X3956071Y-19142143D01*
X3963214Y-19135000D01*
X3977500Y-19127857D01*
X4006071Y-19127857D01*
X4020357Y-19135000D01*
X4056071Y-19242143D02*
X4170357Y-19242143D01*
X4206071Y-19127857D02*
X4206071Y-19277857D01*
X4206071Y-19135000D02*
X4220357Y-19127857D01*
X4248929Y-19127857D01*
X4263214Y-19135000D01*
X4270357Y-19142143D01*
X4277500Y-19156429D01*
X4277500Y-19199286D01*
X4270357Y-19213571D01*
X4263214Y-19220714D01*
X4248929Y-19227857D01*
X4220357Y-19227857D01*
X4206071Y-19220714D01*
X4406071Y-19220714D02*
X4391786Y-19227857D01*
X4363214Y-19227857D01*
X4348929Y-19220714D01*
X4341786Y-19213571D01*
X4334643Y-19199286D01*
X4334643Y-19156429D01*
X4341786Y-19142143D01*
X4348929Y-19135000D01*
X4363214Y-19127857D01*
X4391786Y-19127857D01*
X4406071Y-19135000D01*
X4470357Y-19227857D02*
X4470357Y-19077857D01*
X4470357Y-19135000D02*
X4484643Y-19127857D01*
X4513214Y-19127857D01*
X4527500Y-19135000D01*
X4534643Y-19142143D01*
X4541786Y-19156429D01*
X4541786Y-19199286D01*
X4534643Y-19213571D01*
X4527500Y-19220714D01*
X4513214Y-19227857D01*
X4484643Y-19227857D01*
X4470357Y-19220714D01*
D10*
D11*
X1970000Y-18740000D02*
X12770000Y-18740000D01*
D10*
D11*
X2106071Y-18950714D02*
X2127500Y-18957857D01*
X2163214Y-18957857D01*
X2177500Y-18950714D01*
X2184643Y-18943571D01*
X2191786Y-18929286D01*
X2191786Y-18915000D01*
X2184643Y-18900714D01*
X2177500Y-18893571D01*
X2163214Y-18886429D01*
X2134643Y-18879286D01*
X2120357Y-18872143D01*
X2113214Y-18865000D01*
X2106071Y-18850714D01*
X2106071Y-18836429D01*
X2113214Y-18822143D01*
X2120357Y-18815000D01*
X2134643Y-18807857D01*
X2170357Y-18807857D01*
X2191786Y-18815000D01*
X2256071Y-18957857D02*
X2256071Y-18807857D01*
X2320357Y-18957857D02*
X2320357Y-18879286D01*
X2313214Y-18865000D01*
X2298929Y-18857857D01*
X2277500Y-18857857D01*
X2263214Y-18865000D01*
X2256071Y-18872143D01*
X2448929Y-18950714D02*
X2434643Y-18957857D01*
X2406071Y-18957857D01*
X2391786Y-18950714D01*
X2384643Y-18936429D01*
X2384643Y-18879286D01*
X2391786Y-18865000D01*
X2406071Y-18857857D01*
X2434643Y-18857857D01*
X2448929Y-18865000D01*
X2456071Y-18879286D01*
X2456071Y-18893571D01*
X2384643Y-18907857D01*
X2577500Y-18950714D02*
X2563214Y-18957857D01*
X2534643Y-18957857D01*
X2520357Y-18950714D01*
X2513214Y-18936429D01*
X2513214Y-18879286D01*
X2520357Y-18865000D01*
X2534643Y-18857857D01*
X2563214Y-18857857D01*
X2577500Y-18865000D01*
X2584643Y-18879286D01*
X2584643Y-18893571D01*
X2513214Y-18907857D01*
X2627500Y-18857857D02*
X2684643Y-18857857D01*
X2648929Y-18807857D02*
X2648929Y-18936429D01*
X2656071Y-18950714D01*
X2670357Y-18957857D01*
X2684643Y-18957857D01*
X2734643Y-18943571D02*
X2741786Y-18950714D01*
X2734643Y-18957857D01*
X2727500Y-18950714D01*
X2734643Y-18943571D01*
X2734643Y-18957857D01*
X2734643Y-18865000D02*
X2741786Y-18872143D01*
X2734643Y-18879286D01*
X2727500Y-18872143D01*
X2734643Y-18865000D01*
X2734643Y-18879286D01*
D10*
D11*
X3970000Y-19740000D02*
X3970000Y-20040000D01*
D10*
D11*
X10370000Y-19740000D02*
X10370000Y-20390000D01*
D14*
%TO.N,*%
X4953000Y-6731000D03*
X5080000Y-6858000D03*
X6477000Y-6477000D03*
X4953000Y-4953000D03*
X5080000Y-4953000D03*
X5207000Y-4953000D03*
D15*
X4953000Y-10541000D03*
X4699000Y-10541000D03*
X4445000Y-10541000D03*
X4191000Y-10541000D03*
X3937000Y-10541000D03*
X3683000Y-10541000D03*
X3429000Y-10541000D03*
X3175000Y-10541000D03*
X2921000Y-10541000D03*
X2921000Y-10795000D03*
X2921000Y-11049000D03*
X2921000Y-11303000D03*
X3175000Y-11303000D03*
X3175000Y-11049000D03*
X3175000Y-10795000D03*
X3429000Y-10795000D03*
X3429000Y-11049000D03*
X3429000Y-11303000D03*
X3683000Y-11303000D03*
X3683000Y-11049000D03*
X3683000Y-10795000D03*
X3937000Y-10795000D03*
X3937000Y-11049000D03*
X3937000Y-11303000D03*
X4953000Y-10795000D03*
X4699000Y-10795000D03*
X4445000Y-10795000D03*
X4191000Y-10795000D03*
X4191000Y-11049000D03*
X4191000Y-11303000D03*
X4445000Y-11303000D03*
X4445000Y-11049000D03*
X4953000Y-8255000D03*
X4953000Y-8001000D03*
X5207000Y-8001000D03*
X5207000Y-8255000D03*
X4699000Y-8001000D03*
X4699000Y-8255000D03*
X5461000Y-8255000D03*
X5461000Y-8001000D03*
X5461000Y-7747000D03*
X5461000Y-7493000D03*
X4191000Y-8255000D03*
X4191000Y-8001000D03*
X3810000Y-8001000D03*
X3810000Y-8255000D03*
X3429000Y-8001000D03*
X2413000Y-7493000D03*
X2413000Y-7239000D03*
X2413000Y-6985000D03*
X2413000Y-6731000D03*
X2413000Y-9017000D03*
X2413000Y-8509000D03*
X2413000Y-8255000D03*
X2413000Y-8001000D03*
X2413000Y-9271000D03*
X2667000Y-9271000D03*
X2667000Y-9017000D03*
X7239000Y-8001000D03*
X7239000Y-7747000D03*
X7239000Y-7493000D03*
X7239000Y-7239000D03*
X7239000Y-6731000D03*
X7239000Y-6477000D03*
X7239000Y-6223000D03*
X7239000Y-5842000D03*
X7239000Y-5588000D03*
X7239000Y-5334000D03*
X7239000Y-5080000D03*
X7239000Y-4826000D03*
X7239000Y-4572000D03*
X7239000Y-4318000D03*
X7239000Y-4064000D03*
X7239000Y-3810000D03*
X7239000Y-3556000D03*
X6731000Y-3683000D03*
X6477000Y-3683000D03*
X6223000Y-3683000D03*
X6223000Y-4191000D03*
X6477000Y-4191000D03*
X6731000Y-4191000D03*
X6731000Y-4699000D03*
X6477000Y-4699000D03*
X6223000Y-4699000D03*
X6223000Y-5207000D03*
X6477000Y-5207000D03*
X6731000Y-5207000D03*
X6477000Y-6096000D03*
X5969000Y-6096000D03*
X6477000Y-7112000D03*
X5969000Y-7112000D03*
X5461000Y-6731000D03*
X5461000Y-6477000D03*
X5461000Y-6223000D03*
X5461000Y-5969000D03*
X5461000Y-5715000D03*
X5461000Y-5461000D03*
X4826000Y-6477000D03*
X4318000Y-6477000D03*
X3810000Y-6985000D03*
X3810000Y-7493000D03*
X3810000Y-5461000D03*
X3810000Y-5969000D03*
X3302000Y-6477000D03*
X2794000Y-6477000D03*
X5207000Y-8763000D03*
X4953000Y-8763000D03*
X4699000Y-8763000D03*
X4445000Y-8763000D03*
X4191000Y-8763000D03*
X3937000Y-8763000D03*
X3683000Y-8763000D03*
X3429000Y-8763000D03*
X3175000Y-8763000D03*
X3175000Y-9017000D03*
X3175000Y-9271000D03*
X3175000Y-9525000D03*
X3175000Y-9779000D03*
X3175000Y-10033000D03*
X3175000Y-10287000D03*
X2921000Y-10287000D03*
X2667000Y-10287000D03*
X2667000Y-10033000D03*
X2413000Y-10033000D03*
X2413000Y-9779000D03*
X2667000Y-9779000D03*
X2667000Y-9525000D03*
X2413000Y-9525000D03*
X2667000Y-10541000D03*
X2413000Y-10541000D03*
X2413000Y-10795000D03*
X2413000Y-10287000D03*
X2667000Y-10795000D03*
X2921000Y-10033000D03*
X2921000Y-9779000D03*
X2921000Y-9525000D03*
X2921000Y-9271000D03*
X2921000Y-9017000D03*
X2921000Y-8763000D03*
X3429000Y-9017000D03*
X3683000Y-9017000D03*
X3937000Y-9017000D03*
X3937000Y-9271000D03*
X3683000Y-9271000D03*
X3429000Y-9271000D03*
X3429000Y-9525000D03*
X3429000Y-9779000D03*
X3429000Y-10033000D03*
X3429000Y-10287000D03*
X3683000Y-10287000D03*
X3683000Y-10033000D03*
X3683000Y-9779000D03*
X3683000Y-9525000D03*
X3937000Y-9525000D03*
X3937000Y-9779000D03*
X3937000Y-10033000D03*
X3937000Y-10287000D03*
X4191000Y-10287000D03*
X4445000Y-10287000D03*
X4699000Y-10287000D03*
X4953000Y-10287000D03*
X4953000Y-10033000D03*
X4699000Y-10033000D03*
X4445000Y-10033000D03*
X4191000Y-10033000D03*
X4191000Y-9779000D03*
X4445000Y-9779000D03*
X4699000Y-9779000D03*
X4953000Y-9779000D03*
X5207000Y-10795000D03*
X4953000Y-9525000D03*
X4699000Y-9525000D03*
X4445000Y-9525000D03*
X4191000Y-9525000D03*
X4191000Y-9271000D03*
X4191000Y-9017000D03*
X4445000Y-9017000D03*
X4445000Y-9271000D03*
X4699000Y-9271000D03*
X4699000Y-9017000D03*
X4953000Y-9017000D03*
X4953000Y-9271000D03*
X5207000Y-9271000D03*
X5207000Y-9017000D03*
X2413000Y-6223000D03*
X2413000Y-5969000D03*
X2413000Y-5715000D03*
X2413000Y-5461000D03*
X2413000Y-5207000D03*
X2413000Y-4953000D03*
X2413000Y-4699000D03*
X2413000Y-4445000D03*
X4953000Y-1905000D03*
X4445000Y-1905000D03*
X4191000Y-1905000D03*
X3937000Y-1905000D03*
X3683000Y-1905000D03*
X3429000Y-1905000D03*
X6731000Y-2794000D03*
X6731000Y-2032000D03*
X5715000Y-9779000D03*
X5715000Y-11049000D03*
X5715000Y-11303000D03*
X5969000Y-11303000D03*
X5969000Y-11049000D03*
X6223000Y-11049000D03*
X6223000Y-11303000D03*
X5715000Y-9525000D03*
X5207000Y-10541000D03*
X4699000Y-11049000D03*
X4699000Y-11303000D03*
X4953000Y-11049000D03*
X4953000Y-11303000D03*
X5207000Y-11303000D03*
X5207000Y-11049000D03*
X6794500Y-9779000D03*
X6540500Y-9779000D03*
X6286500Y-9779000D03*
X6731000Y-2286000D03*
X2413000Y-7747000D03*
X5461000Y-7239000D03*
D14*
X4826000Y-7747000D03*
D15*
X3429000Y-8255000D03*
D14*
X5461000Y-4318000D03*
X5969000Y-7747000D03*
D15*
X7239000Y-10287000D03*
X7239000Y-10033000D03*
X7239000Y-9779000D03*
X7239000Y-9525000D03*
X7239000Y-9271000D03*
X7239000Y-9017000D03*
X7239000Y-8763000D03*
X7239000Y-8509000D03*
X6223000Y-10287000D03*
X5969000Y-10287000D03*
X5715000Y-10287000D03*
X5715000Y-10541000D03*
X5969000Y-10541000D03*
X6223000Y-10541000D03*
X5461000Y-11049000D03*
X5461000Y-11303000D03*
X6477000Y-11303000D03*
X6477000Y-11049000D03*
X6731000Y-11049000D03*
X6731000Y-11303000D03*
X6985000Y-11303000D03*
X6985000Y-11049000D03*
X7239000Y-11049000D03*
X7239000Y-11303000D03*
X5207000Y-9525000D03*
X5207000Y-9779000D03*
X5207000Y-10033000D03*
X5207000Y-10287000D03*
D14*
X7048500Y-6731000D03*
X6985000Y-6629400D03*
X6032500Y-7683500D03*
X6350000Y-8001000D03*
X6350000Y-7747000D03*
X6096000Y-7937500D03*
X6032500Y-8001000D03*
X6096000Y-8064500D03*
X6032500Y-7810500D03*
D15*
X3556000Y-5207000D03*
X3556000Y-4953000D03*
X5715000Y-5461000D03*
X4699000Y-1905000D03*
D14*
X5334000Y-4953000D03*
D15*
X7239000Y-6985000D03*
D16*
X6731000Y-7874000D03*
X5461000Y-8763000D03*
D17*
X2667000Y-8763000D03*
%TD*%
D18*
%TO.N,*%
X2667000Y-7239000D02*
X2413000Y-7239000D01*
X4381500Y-4699000D02*
X4381500Y-5080000D01*
X4762500Y-4318000D02*
X4381500Y-4699000D01*
X4762500Y-4445000D02*
X4508500Y-4699000D01*
X6223000Y-4318000D02*
X6096000Y-4445000D01*
X4953000Y-4953000D02*
X4953000Y-6731000D01*
X5207000Y-4953000D02*
X5207000Y-5715000D01*
X5207000Y-5715000D02*
X5461000Y-5969000D01*
X6223000Y-3302000D02*
X6731000Y-2794000D01*
X2794000Y-7112000D02*
X2667000Y-7239000D01*
X6223000Y-4191000D02*
X6223000Y-4318000D01*
X2794000Y-6477000D02*
X2794000Y-7112000D01*
X4381500Y-5080000D02*
X4127500Y-5334000D01*
X5080000Y-4953000D02*
X5080000Y-6858000D01*
X6731000Y-2286000D02*
X6731000Y-2032000D01*
X3175000Y-11049000D02*
X3048000Y-10922000D01*
X3429000Y-11049000D02*
X3302000Y-10922000D01*
X3683000Y-11049000D02*
X3556000Y-10922000D01*
X3810000Y-10922000D02*
X3937000Y-11049000D01*
X4191000Y-11049000D02*
X4064000Y-10922000D01*
X4318000Y-10922000D02*
X4445000Y-11049000D01*
X4699000Y-11049000D02*
X4572000Y-10922000D01*
X4826000Y-10922000D02*
X4953000Y-11049000D01*
X4762500Y-4445000D02*
X6096000Y-4445000D01*
X4762500Y-4318000D02*
X5461000Y-4318000D01*
X5461000Y-7239000D02*
X5334000Y-7239000D01*
X5334000Y-7239000D02*
X4826000Y-7747000D01*
D19*
X2540000Y-5207000D02*
X3048000Y-5715000D01*
X2413000Y-5207000D02*
X2540000Y-5207000D01*
D20*
X3556000Y-5715000D02*
X3810000Y-5969000D01*
D21*
X5461000Y-5461000D02*
X5715000Y-5715000D01*
D19*
X3048000Y-5715000D02*
X3048000Y-8001000D01*
X3048000Y-8001000D02*
X3302000Y-8255000D01*
X3302000Y-8255000D02*
X3429000Y-8255000D01*
X3429000Y-8255000D02*
X3810000Y-8255000D01*
X3810000Y-8255000D02*
X4191000Y-8255000D01*
D18*
X3429000Y-8001000D02*
X3683000Y-7747000D01*
X3683000Y-7747000D02*
X3937000Y-7747000D01*
X3937000Y-7747000D02*
X4127500Y-7556500D01*
X3810000Y-8001000D02*
X4508500Y-7302500D01*
X4508500Y-4699000D02*
X4508500Y-7302500D01*
X4191000Y-8001000D02*
X4191000Y-7874000D01*
X4191000Y-7874000D02*
X4635500Y-7429500D01*
X4127500Y-7556500D02*
X4127500Y-5334000D01*
X6223000Y-3683000D02*
X6223000Y-3302000D01*
X3810000Y-10668000D02*
X3810000Y-10922000D01*
X4064000Y-10668000D02*
X4191000Y-10541000D01*
X4064000Y-10922000D02*
X4064000Y-10668000D01*
X3937000Y-10541000D02*
X3810000Y-10668000D01*
X4445000Y-10541000D02*
X4318000Y-10668000D01*
X4953000Y-10541000D02*
X4826000Y-10668000D01*
X4572000Y-10668000D02*
X4699000Y-10541000D01*
X4318000Y-10668000D02*
X4318000Y-10922000D01*
X4572000Y-10922000D02*
X4572000Y-10668000D01*
X4826000Y-10668000D02*
X4826000Y-10922000D01*
X3048000Y-10668000D02*
X3175000Y-10541000D01*
X3048000Y-10922000D02*
X3048000Y-10668000D01*
X3556000Y-10668000D02*
X3683000Y-10541000D01*
X3556000Y-10922000D02*
X3556000Y-10668000D01*
X3302000Y-10668000D02*
X3429000Y-10541000D01*
X3302000Y-10922000D02*
X3302000Y-10668000D01*
X6477000Y-6477000D02*
X6477000Y-7112000D01*
D21*
X5969000Y-6096000D02*
X5969000Y-7112000D01*
X6032500Y-7366000D02*
X6159500Y-7493000D01*
X5715000Y-7239000D02*
X5842000Y-7366000D01*
X5715000Y-5715000D02*
X5715000Y-7239000D01*
D18*
X4635500Y-7429500D02*
X4635500Y-4699000D01*
X4635500Y-4699000D02*
X4762500Y-4572000D01*
X4762500Y-4572000D02*
X5905500Y-4572000D01*
X5905500Y-4572000D02*
X6032500Y-4699000D01*
X6032500Y-4699000D02*
X6032500Y-4762500D01*
X6032500Y-4762500D02*
X6223000Y-4953000D01*
X6223000Y-4953000D02*
X6223000Y-5207000D01*
D21*
X6350000Y-7493000D02*
X6731000Y-7874000D01*
X6604000Y-7366000D02*
X6985000Y-7747000D01*
X6985000Y-9334500D02*
X6540500Y-9779000D01*
X6985000Y-7747000D02*
X6985000Y-9334500D01*
X6731000Y-7874000D02*
X6731000Y-8890000D01*
X6731000Y-8890000D02*
X5969000Y-9652000D01*
X5969000Y-9652000D02*
X5969000Y-9906000D01*
X5969000Y-9906000D02*
X5842000Y-10033000D01*
X5715000Y-10541000D02*
X5969000Y-10541000D01*
X6223000Y-10541000D02*
X6540500Y-10541000D01*
X6540500Y-10541000D02*
X6794500Y-10287000D01*
X6794500Y-10287000D02*
X6794500Y-9779000D01*
D18*
X6985000Y-3810000D02*
X7239000Y-3556000D01*
X7239000Y-3810000D02*
X7048500Y-4000500D01*
X7239000Y-6731000D02*
X7112000Y-6858000D01*
X7112000Y-6667500D02*
X7112000Y-6604000D01*
X7112000Y-6604000D02*
X7048500Y-6540500D01*
X7048500Y-6540500D02*
X7048500Y-4000500D01*
X7048500Y-6731000D02*
X7112000Y-6667500D01*
X7112000Y-6858000D02*
X6985000Y-6858000D01*
X6985000Y-6858000D02*
X6858000Y-6731000D01*
X6858000Y-6731000D02*
X6858000Y-5651500D01*
X6858000Y-5651500D02*
X6921500Y-5588000D01*
X6921500Y-5588000D02*
X6921500Y-2476500D01*
X6731000Y-2286000D02*
X6921500Y-2476500D01*
X6985000Y-3810000D02*
X6985000Y-6629400D01*
X5969000Y-7747000D02*
X5461000Y-7747000D01*
X5461000Y-8001000D02*
X6032500Y-8001000D01*
X6286500Y-8001000D02*
X6223000Y-7937500D01*
X6223000Y-7937500D02*
X6223000Y-7747000D01*
X5969000Y-7493000D02*
X5461000Y-7493000D01*
X6223000Y-7747000D02*
X5969000Y-7493000D01*
X5461000Y-8394700D02*
X5524500Y-8458200D01*
D21*
X5207000Y-10287000D02*
X5207000Y-10541000D01*
X5207000Y-10541000D02*
X5397500Y-10731500D01*
X5397500Y-10731500D02*
X6921500Y-10731500D01*
X6921500Y-10731500D02*
X7239000Y-11049000D01*
X7239000Y-11303000D02*
X7239000Y-11049000D01*
X2921000Y-10541000D02*
X2921000Y-11303000D01*
D18*
X6350000Y-8001000D02*
X6286500Y-8001000D01*
D20*
X2413000Y-9779000D02*
X2667000Y-9779000D01*
X2413000Y-9525000D02*
X2667000Y-9525000D01*
X2413000Y-9271000D02*
X2667000Y-9271000D01*
X2413000Y-9017000D02*
X2667000Y-9017000D01*
D21*
X2413000Y-10033000D02*
X2667000Y-10033000D01*
X2413000Y-10287000D02*
X2667000Y-10287000D01*
D20*
X3556000Y-5207000D02*
X3556000Y-5715000D01*
D19*
X3556000Y-4953000D02*
X3556000Y-2794000D01*
X3683000Y-2667000D02*
X3683000Y-1905000D01*
X3556000Y-2794000D02*
X3683000Y-2667000D01*
X3429000Y-1905000D02*
X3429000Y-2667000D01*
X3429000Y-2667000D02*
X3365500Y-2730500D01*
X3365500Y-2730500D02*
X3365500Y-4762500D01*
X3365500Y-4762500D02*
X3302000Y-4826000D01*
X3302000Y-4826000D02*
X3302000Y-5080000D01*
X3302000Y-5080000D02*
X3429000Y-5207000D01*
X3429000Y-5207000D02*
X3556000Y-5207000D01*
D18*
X5651500Y-5080000D02*
X5461000Y-5080000D01*
X5461000Y-5080000D02*
X5334000Y-4953000D01*
X7239000Y-6985000D02*
X6985000Y-6985000D01*
X6731000Y-5842000D02*
X6731000Y-6731000D01*
X6477000Y-5588000D02*
X6731000Y-5842000D01*
X6731000Y-6731000D02*
X6985000Y-6985000D01*
X6159500Y-5588000D02*
X5651500Y-5080000D01*
X6477000Y-5588000D02*
X6159500Y-5588000D01*
D21*
X6350000Y-7493000D02*
X6159500Y-7493000D01*
X6032500Y-7366000D02*
X5842000Y-7366000D01*
D18*
X5080000Y-7239000D02*
X5080000Y-6858000D01*
X4533900Y-7785100D02*
X5080000Y-7239000D01*
X4533900Y-8318500D02*
X4533900Y-7785100D01*
X4635500Y-8420100D02*
X4533900Y-8318500D01*
X4889500Y-8420100D02*
X4635500Y-8420100D01*
X4953000Y-8356600D02*
X4889500Y-8420100D01*
X4953000Y-8255000D02*
X4953000Y-8356600D01*
X5461000Y-8394700D02*
X5461000Y-8255000D01*
X6477000Y-7874000D02*
X6350000Y-7747000D01*
X6350000Y-8191500D02*
X6477000Y-8064500D01*
X6477000Y-8064500D02*
X6477000Y-7874000D01*
X6159500Y-8191500D02*
X6350000Y-8191500D01*
X5892800Y-8458200D02*
X6159500Y-8191500D01*
X5892800Y-8458200D02*
X5524500Y-8458200D01*
D21*
X6159500Y-7175500D02*
X6286500Y-7302500D01*
X6286500Y-7302500D02*
X6413500Y-7302500D01*
X6413500Y-7302500D02*
X6477000Y-7366000D01*
X6477000Y-7366000D02*
X6604000Y-7366000D01*
X6032500Y-7175500D02*
X5969000Y-7112000D01*
X6159500Y-7175500D02*
X6032500Y-7175500D01*
X5715000Y-10541000D02*
X5651500Y-10541000D01*
X5524500Y-10223500D02*
X5524500Y-10414000D01*
X5524500Y-10414000D02*
X5651500Y-10541000D01*
X5842000Y-10033000D02*
X5715000Y-10033000D01*
X5715000Y-10033000D02*
X5524500Y-10223500D01*
X5207000Y-10033000D02*
X5715000Y-9525000D01*
%TD*%
M02*
