%TF.GenerationSoftware,KiCad,Pcbnew,(5.1.9)-1*%
%TF.CreationDate,2021-08-02T11:53:33-04:00*%
%TF.ProjectId,MK2_1,4d4b325f-312e-46b6-9963-61645f706362,1*%
%TF.SameCoordinates,Original*%
%TF.FileFunction,Other,Comment*%
%FSLAX45Y45*%
G04 Gerber Fmt 4.5, Leading zero omitted, Abs format (unit mm)*
G04 Created by KiCad (PCBNEW (5.1.9)-1) date 2021-08-02 11:53:33*
%MOMM*%
%LPD*%
G01*
G04 APERTURE LIST*
%ADD10C,0.127000*%
%ADD11C,0.150000*%
%ADD12C,0.300000*%
%ADD13C,0.400000*%
G04 APERTURE END LIST*
D10*
D11*
X9590000Y-9570000D02*
X9590000Y-12770000D01*
X20390000Y-12770000D01*
X20390000Y-9570000D01*
X9590000Y-9570000D01*
D10*
D11*
X1000000Y-1000000D02*
X1000000Y-12970000D01*
X20590000Y-12970000D01*
X20590000Y-1000000D01*
X1000000Y-1000000D01*
D10*
D11*
X1200000Y-1200000D02*
X1200000Y-12770000D01*
X20390000Y-12770000D01*
X20390000Y-1200000D01*
X1200000Y-1200000D01*
D10*
D11*
X6000000Y-1200000D02*
X6000000Y-1000000D01*
D10*
D11*
X11000000Y-1200000D02*
X11000000Y-1000000D01*
D10*
D11*
X16000000Y-1200000D02*
X16000000Y-1000000D01*
D10*
D11*
X3606548Y-1158810D02*
X3532262Y-1158810D01*
X3569405Y-1158810D02*
X3569405Y-1028809D01*
X3557024Y-1047381D01*
X3544643Y-1059762D01*
X3532262Y-1065952D01*
D10*
D11*
X8532262Y-1041190D02*
X8538452Y-1035000D01*
X8550833Y-1028809D01*
X8581786Y-1028809D01*
X8594167Y-1035000D01*
X8600357Y-1041190D01*
X8606548Y-1053571D01*
X8606548Y-1065952D01*
X8600357Y-1084524D01*
X8526071Y-1158810D01*
X8606548Y-1158810D01*
D10*
D11*
X13526071Y-1028809D02*
X13606548Y-1028809D01*
X13563214Y-1078333D01*
X13581786Y-1078333D01*
X13594167Y-1084524D01*
X13600357Y-1090714D01*
X13606548Y-1103095D01*
X13606548Y-1134048D01*
X13600357Y-1146429D01*
X13594167Y-1152619D01*
X13581786Y-1158810D01*
X13544643Y-1158810D01*
X13532262Y-1152619D01*
X13526071Y-1146429D01*
D10*
D11*
X18594167Y-1072143D02*
X18594167Y-1158810D01*
X18563214Y-1022619D02*
X18532262Y-1115476D01*
X18612738Y-1115476D01*
D10*
D11*
X6000000Y-12770000D02*
X6000000Y-12970000D01*
D10*
D11*
X11000000Y-12770000D02*
X11000000Y-12970000D01*
D10*
D11*
X16000000Y-12770000D02*
X16000000Y-12970000D01*
D10*
D11*
X3606548Y-12928809D02*
X3532262Y-12928809D01*
X3569405Y-12928809D02*
X3569405Y-12798809D01*
X3557024Y-12817381D01*
X3544643Y-12829762D01*
X3532262Y-12835952D01*
D10*
D11*
X8532262Y-12811190D02*
X8538452Y-12805000D01*
X8550833Y-12798809D01*
X8581786Y-12798809D01*
X8594167Y-12805000D01*
X8600357Y-12811190D01*
X8606548Y-12823571D01*
X8606548Y-12835952D01*
X8600357Y-12854524D01*
X8526071Y-12928809D01*
X8606548Y-12928809D01*
D10*
D11*
X13526071Y-12798809D02*
X13606548Y-12798809D01*
X13563214Y-12848333D01*
X13581786Y-12848333D01*
X13594167Y-12854524D01*
X13600357Y-12860714D01*
X13606548Y-12873095D01*
X13606548Y-12904048D01*
X13600357Y-12916428D01*
X13594167Y-12922619D01*
X13581786Y-12928809D01*
X13544643Y-12928809D01*
X13532262Y-12922619D01*
X13526071Y-12916428D01*
D10*
D11*
X18594167Y-12842143D02*
X18594167Y-12928809D01*
X18563214Y-12792619D02*
X18532262Y-12885476D01*
X18612738Y-12885476D01*
D10*
D11*
X1000000Y-6000000D02*
X1200000Y-6000000D01*
D10*
D11*
X1000000Y-11000000D02*
X1200000Y-11000000D01*
D10*
D11*
X1069048Y-3521667D02*
X1130952Y-3521667D01*
X1056667Y-3558809D02*
X1100000Y-3428809D01*
X1143333Y-3558809D01*
D10*
D11*
X1109286Y-8490714D02*
X1127857Y-8496905D01*
X1134048Y-8503095D01*
X1140238Y-8515476D01*
X1140238Y-8534048D01*
X1134048Y-8546429D01*
X1127857Y-8552619D01*
X1115476Y-8558810D01*
X1065952Y-8558810D01*
X1065952Y-8428810D01*
X1109286Y-8428810D01*
X1121667Y-8435000D01*
X1127857Y-8441190D01*
X1134048Y-8453571D01*
X1134048Y-8465952D01*
X1127857Y-8478333D01*
X1121667Y-8484524D01*
X1109286Y-8490714D01*
X1065952Y-8490714D01*
D10*
D11*
X20590000Y-6000000D02*
X20390000Y-6000000D01*
D10*
D11*
X20590000Y-11000000D02*
X20390000Y-11000000D01*
D10*
D11*
X20459048Y-3521667D02*
X20520952Y-3521667D01*
X20446667Y-3558809D02*
X20490000Y-3428809D01*
X20533333Y-3558809D01*
D10*
D11*
X20499286Y-8490714D02*
X20517857Y-8496905D01*
X20524048Y-8503095D01*
X20530238Y-8515476D01*
X20530238Y-8534048D01*
X20524048Y-8546429D01*
X20517857Y-8552619D01*
X20505476Y-8558810D01*
X20455952Y-8558810D01*
X20455952Y-8428810D01*
X20499286Y-8428810D01*
X20511667Y-8435000D01*
X20517857Y-8441190D01*
X20524048Y-8453571D01*
X20524048Y-8465952D01*
X20517857Y-8478333D01*
X20511667Y-8484524D01*
X20499286Y-8490714D01*
X20455952Y-8490714D01*
D10*
D11*
X11933214Y-12347857D02*
X11933214Y-12197857D01*
X11968928Y-12197857D01*
X11990357Y-12205000D01*
X12004643Y-12219286D01*
X12011786Y-12233571D01*
X12018928Y-12262143D01*
X12018928Y-12283571D01*
X12011786Y-12312143D01*
X12004643Y-12326428D01*
X11990357Y-12340714D01*
X11968928Y-12347857D01*
X11933214Y-12347857D01*
X12147500Y-12347857D02*
X12147500Y-12269286D01*
X12140357Y-12255000D01*
X12126071Y-12247857D01*
X12097500Y-12247857D01*
X12083214Y-12255000D01*
X12147500Y-12340714D02*
X12133214Y-12347857D01*
X12097500Y-12347857D01*
X12083214Y-12340714D01*
X12076071Y-12326428D01*
X12076071Y-12312143D01*
X12083214Y-12297857D01*
X12097500Y-12290714D01*
X12133214Y-12290714D01*
X12147500Y-12283571D01*
X12197500Y-12247857D02*
X12254643Y-12247857D01*
X12218928Y-12197857D02*
X12218928Y-12326428D01*
X12226071Y-12340714D01*
X12240357Y-12347857D01*
X12254643Y-12347857D01*
X12361786Y-12340714D02*
X12347500Y-12347857D01*
X12318928Y-12347857D01*
X12304643Y-12340714D01*
X12297500Y-12326428D01*
X12297500Y-12269286D01*
X12304643Y-12255000D01*
X12318928Y-12247857D01*
X12347500Y-12247857D01*
X12361786Y-12255000D01*
X12368928Y-12269286D01*
X12368928Y-12283571D01*
X12297500Y-12297857D01*
X12433214Y-12333571D02*
X12440357Y-12340714D01*
X12433214Y-12347857D01*
X12426071Y-12340714D01*
X12433214Y-12333571D01*
X12433214Y-12347857D01*
X12433214Y-12255000D02*
X12440357Y-12262143D01*
X12433214Y-12269286D01*
X12426071Y-12262143D01*
X12433214Y-12255000D01*
X12433214Y-12269286D01*
X12611786Y-12212143D02*
X12618928Y-12205000D01*
X12633214Y-12197857D01*
X12668928Y-12197857D01*
X12683214Y-12205000D01*
X12690357Y-12212143D01*
X12697500Y-12226428D01*
X12697500Y-12240714D01*
X12690357Y-12262143D01*
X12604643Y-12347857D01*
X12697500Y-12347857D01*
X12790357Y-12197857D02*
X12804643Y-12197857D01*
X12818928Y-12205000D01*
X12826071Y-12212143D01*
X12833214Y-12226428D01*
X12840357Y-12255000D01*
X12840357Y-12290714D01*
X12833214Y-12319286D01*
X12826071Y-12333571D01*
X12818928Y-12340714D01*
X12804643Y-12347857D01*
X12790357Y-12347857D01*
X12776071Y-12340714D01*
X12768928Y-12333571D01*
X12761786Y-12319286D01*
X12754643Y-12290714D01*
X12754643Y-12255000D01*
X12761786Y-12226428D01*
X12768928Y-12212143D01*
X12776071Y-12205000D01*
X12790357Y-12197857D01*
X12897500Y-12212143D02*
X12904643Y-12205000D01*
X12918928Y-12197857D01*
X12954643Y-12197857D01*
X12968928Y-12205000D01*
X12976071Y-12212143D01*
X12983214Y-12226428D01*
X12983214Y-12240714D01*
X12976071Y-12262143D01*
X12890357Y-12347857D01*
X12983214Y-12347857D01*
X13126071Y-12347857D02*
X13040357Y-12347857D01*
X13083214Y-12347857D02*
X13083214Y-12197857D01*
X13068928Y-12219286D01*
X13054643Y-12233571D01*
X13040357Y-12240714D01*
X13190357Y-12290714D02*
X13304643Y-12290714D01*
X13404643Y-12197857D02*
X13418928Y-12197857D01*
X13433214Y-12205000D01*
X13440357Y-12212143D01*
X13447500Y-12226428D01*
X13454643Y-12255000D01*
X13454643Y-12290714D01*
X13447500Y-12319286D01*
X13440357Y-12333571D01*
X13433214Y-12340714D01*
X13418928Y-12347857D01*
X13404643Y-12347857D01*
X13390357Y-12340714D01*
X13383214Y-12333571D01*
X13376071Y-12319286D01*
X13368928Y-12290714D01*
X13368928Y-12255000D01*
X13376071Y-12226428D01*
X13383214Y-12212143D01*
X13390357Y-12205000D01*
X13404643Y-12197857D01*
X13504643Y-12197857D02*
X13604643Y-12197857D01*
X13540357Y-12347857D01*
X13661786Y-12290714D02*
X13776071Y-12290714D01*
X13926071Y-12347857D02*
X13840357Y-12347857D01*
X13883214Y-12347857D02*
X13883214Y-12197857D01*
X13868928Y-12219286D01*
X13854643Y-12233571D01*
X13840357Y-12240714D01*
X13997500Y-12347857D02*
X14026071Y-12347857D01*
X14040357Y-12340714D01*
X14047500Y-12333571D01*
X14061786Y-12312143D01*
X14068928Y-12283571D01*
X14068928Y-12226428D01*
X14061786Y-12212143D01*
X14054643Y-12205000D01*
X14040357Y-12197857D01*
X14011786Y-12197857D01*
X13997500Y-12205000D01*
X13990357Y-12212143D01*
X13983214Y-12226428D01*
X13983214Y-12262143D01*
X13990357Y-12276428D01*
X13997500Y-12283571D01*
X14011786Y-12290714D01*
X14040357Y-12290714D01*
X14054643Y-12283571D01*
X14061786Y-12276428D01*
X14068928Y-12262143D01*
D10*
D11*
X9590000Y-12420000D02*
X20390000Y-12420000D01*
D10*
D11*
X9733214Y-12627857D02*
X9733214Y-12477857D01*
X9818929Y-12627857D02*
X9754643Y-12542143D01*
X9818929Y-12477857D02*
X9733214Y-12563571D01*
X9883214Y-12627857D02*
X9883214Y-12527857D01*
X9883214Y-12477857D02*
X9876071Y-12485000D01*
X9883214Y-12492143D01*
X9890357Y-12485000D01*
X9883214Y-12477857D01*
X9883214Y-12492143D01*
X10040357Y-12613571D02*
X10033214Y-12620714D01*
X10011786Y-12627857D01*
X9997500Y-12627857D01*
X9976071Y-12620714D01*
X9961786Y-12606428D01*
X9954643Y-12592143D01*
X9947500Y-12563571D01*
X9947500Y-12542143D01*
X9954643Y-12513571D01*
X9961786Y-12499286D01*
X9976071Y-12485000D01*
X9997500Y-12477857D01*
X10011786Y-12477857D01*
X10033214Y-12485000D01*
X10040357Y-12492143D01*
X10168929Y-12627857D02*
X10168929Y-12549286D01*
X10161786Y-12535000D01*
X10147500Y-12527857D01*
X10118929Y-12527857D01*
X10104643Y-12535000D01*
X10168929Y-12620714D02*
X10154643Y-12627857D01*
X10118929Y-12627857D01*
X10104643Y-12620714D01*
X10097500Y-12606428D01*
X10097500Y-12592143D01*
X10104643Y-12577857D01*
X10118929Y-12570714D01*
X10154643Y-12570714D01*
X10168929Y-12563571D01*
X10304643Y-12627857D02*
X10304643Y-12477857D01*
X10304643Y-12620714D02*
X10290357Y-12627857D01*
X10261786Y-12627857D01*
X10247500Y-12620714D01*
X10240357Y-12613571D01*
X10233214Y-12599286D01*
X10233214Y-12556428D01*
X10240357Y-12542143D01*
X10247500Y-12535000D01*
X10261786Y-12527857D01*
X10290357Y-12527857D01*
X10304643Y-12535000D01*
X10490357Y-12549286D02*
X10540357Y-12549286D01*
X10561786Y-12627857D02*
X10490357Y-12627857D01*
X10490357Y-12477857D01*
X10561786Y-12477857D01*
X10626071Y-12613571D02*
X10633214Y-12620714D01*
X10626071Y-12627857D01*
X10618929Y-12620714D01*
X10626071Y-12613571D01*
X10626071Y-12627857D01*
X10697500Y-12627857D02*
X10697500Y-12477857D01*
X10733214Y-12477857D01*
X10754643Y-12485000D01*
X10768929Y-12499286D01*
X10776071Y-12513571D01*
X10783214Y-12542143D01*
X10783214Y-12563571D01*
X10776071Y-12592143D01*
X10768929Y-12606428D01*
X10754643Y-12620714D01*
X10733214Y-12627857D01*
X10697500Y-12627857D01*
X10847500Y-12613571D02*
X10854643Y-12620714D01*
X10847500Y-12627857D01*
X10840357Y-12620714D01*
X10847500Y-12613571D01*
X10847500Y-12627857D01*
X10911786Y-12585000D02*
X10983214Y-12585000D01*
X10897500Y-12627857D02*
X10947500Y-12477857D01*
X10997500Y-12627857D01*
X11047500Y-12613571D02*
X11054643Y-12620714D01*
X11047500Y-12627857D01*
X11040357Y-12620714D01*
X11047500Y-12613571D01*
X11047500Y-12627857D01*
X11347500Y-12627857D02*
X11347500Y-12477857D01*
X11361786Y-12570714D02*
X11404643Y-12627857D01*
X11404643Y-12527857D02*
X11347500Y-12585000D01*
X11468928Y-12627857D02*
X11468928Y-12527857D01*
X11468928Y-12477857D02*
X11461786Y-12485000D01*
X11468928Y-12492143D01*
X11476071Y-12485000D01*
X11468928Y-12477857D01*
X11468928Y-12492143D01*
X11604643Y-12620714D02*
X11590357Y-12627857D01*
X11561786Y-12627857D01*
X11547500Y-12620714D01*
X11540357Y-12613571D01*
X11533214Y-12599286D01*
X11533214Y-12556428D01*
X11540357Y-12542143D01*
X11547500Y-12535000D01*
X11561786Y-12527857D01*
X11590357Y-12527857D01*
X11604643Y-12535000D01*
X11733214Y-12627857D02*
X11733214Y-12549286D01*
X11726071Y-12535000D01*
X11711786Y-12527857D01*
X11683214Y-12527857D01*
X11668928Y-12535000D01*
X11733214Y-12620714D02*
X11718928Y-12627857D01*
X11683214Y-12627857D01*
X11668928Y-12620714D01*
X11661786Y-12606428D01*
X11661786Y-12592143D01*
X11668928Y-12577857D01*
X11683214Y-12570714D01*
X11718928Y-12570714D01*
X11733214Y-12563571D01*
X11868928Y-12627857D02*
X11868928Y-12477857D01*
X11868928Y-12620714D02*
X11854643Y-12627857D01*
X11826071Y-12627857D01*
X11811786Y-12620714D01*
X11804643Y-12613571D01*
X11797500Y-12599286D01*
X11797500Y-12556428D01*
X11804643Y-12542143D01*
X11811786Y-12535000D01*
X11826071Y-12527857D01*
X11854643Y-12527857D01*
X11868928Y-12535000D01*
X12097500Y-12685000D02*
X12090357Y-12677857D01*
X12076071Y-12656428D01*
X12068928Y-12642143D01*
X12061786Y-12620714D01*
X12054643Y-12585000D01*
X12054643Y-12556428D01*
X12061786Y-12520714D01*
X12068928Y-12499286D01*
X12076071Y-12485000D01*
X12090357Y-12463571D01*
X12097500Y-12456428D01*
X12226071Y-12477857D02*
X12154643Y-12477857D01*
X12147500Y-12549286D01*
X12154643Y-12542143D01*
X12168928Y-12535000D01*
X12204643Y-12535000D01*
X12218928Y-12542143D01*
X12226071Y-12549286D01*
X12233214Y-12563571D01*
X12233214Y-12599286D01*
X12226071Y-12613571D01*
X12218928Y-12620714D01*
X12204643Y-12627857D01*
X12168928Y-12627857D01*
X12154643Y-12620714D01*
X12147500Y-12613571D01*
X12297500Y-12613571D02*
X12304643Y-12620714D01*
X12297500Y-12627857D01*
X12290357Y-12620714D01*
X12297500Y-12613571D01*
X12297500Y-12627857D01*
X12447500Y-12627857D02*
X12361786Y-12627857D01*
X12404643Y-12627857D02*
X12404643Y-12477857D01*
X12390357Y-12499286D01*
X12376071Y-12513571D01*
X12361786Y-12520714D01*
X12511786Y-12613571D02*
X12518928Y-12620714D01*
X12511786Y-12627857D01*
X12504643Y-12620714D01*
X12511786Y-12613571D01*
X12511786Y-12627857D01*
X12590357Y-12627857D02*
X12618928Y-12627857D01*
X12633214Y-12620714D01*
X12640357Y-12613571D01*
X12654643Y-12592143D01*
X12661786Y-12563571D01*
X12661786Y-12506428D01*
X12654643Y-12492143D01*
X12647500Y-12485000D01*
X12633214Y-12477857D01*
X12604643Y-12477857D01*
X12590357Y-12485000D01*
X12583214Y-12492143D01*
X12576071Y-12506428D01*
X12576071Y-12542143D01*
X12583214Y-12556428D01*
X12590357Y-12563571D01*
X12604643Y-12570714D01*
X12633214Y-12570714D01*
X12647500Y-12563571D01*
X12654643Y-12556428D01*
X12661786Y-12542143D01*
X12711786Y-12685000D02*
X12718928Y-12677857D01*
X12733214Y-12656428D01*
X12740357Y-12642143D01*
X12747500Y-12620714D01*
X12754643Y-12585000D01*
X12754643Y-12556428D01*
X12747500Y-12520714D01*
X12740357Y-12499286D01*
X12733214Y-12485000D01*
X12718928Y-12463571D01*
X12711786Y-12456428D01*
X12826071Y-12570714D02*
X12940357Y-12570714D01*
X13090357Y-12627857D02*
X13004643Y-12627857D01*
X13047500Y-12627857D02*
X13047500Y-12477857D01*
X13033214Y-12499286D01*
X13018928Y-12513571D01*
X13004643Y-12520714D01*
D10*
D11*
X9590000Y-12120000D02*
X20390000Y-12120000D01*
D10*
D12*
X18330929Y-12347857D02*
X18280929Y-12276428D01*
X18245214Y-12347857D02*
X18245214Y-12197857D01*
X18302357Y-12197857D01*
X18316643Y-12205000D01*
X18323786Y-12212143D01*
X18330929Y-12226428D01*
X18330929Y-12247857D01*
X18323786Y-12262143D01*
X18316643Y-12269286D01*
X18302357Y-12276428D01*
X18245214Y-12276428D01*
X18452357Y-12340714D02*
X18438071Y-12347857D01*
X18409500Y-12347857D01*
X18395214Y-12340714D01*
X18388071Y-12326428D01*
X18388071Y-12269286D01*
X18395214Y-12255000D01*
X18409500Y-12247857D01*
X18438071Y-12247857D01*
X18452357Y-12255000D01*
X18459500Y-12269286D01*
X18459500Y-12283571D01*
X18388071Y-12297857D01*
X18509500Y-12247857D02*
X18545214Y-12347857D01*
X18580929Y-12247857D01*
X18638071Y-12333571D02*
X18645214Y-12340714D01*
X18638071Y-12347857D01*
X18630929Y-12340714D01*
X18638071Y-12333571D01*
X18638071Y-12347857D01*
X18638071Y-12255000D02*
X18645214Y-12262143D01*
X18638071Y-12269286D01*
X18630929Y-12262143D01*
X18638071Y-12255000D01*
X18638071Y-12269286D01*
X18902357Y-12347857D02*
X18816643Y-12347857D01*
X18859500Y-12347857D02*
X18859500Y-12197857D01*
X18845214Y-12219286D01*
X18830929Y-12233571D01*
X18816643Y-12240714D01*
D10*
D11*
X9726071Y-12340714D02*
X9747500Y-12347857D01*
X9783214Y-12347857D01*
X9797500Y-12340714D01*
X9804643Y-12333571D01*
X9811786Y-12319286D01*
X9811786Y-12305000D01*
X9804643Y-12290714D01*
X9797500Y-12283571D01*
X9783214Y-12276428D01*
X9754643Y-12269286D01*
X9740357Y-12262143D01*
X9733214Y-12255000D01*
X9726071Y-12240714D01*
X9726071Y-12226428D01*
X9733214Y-12212143D01*
X9740357Y-12205000D01*
X9754643Y-12197857D01*
X9790357Y-12197857D01*
X9811786Y-12205000D01*
X9876071Y-12347857D02*
X9876071Y-12247857D01*
X9876071Y-12197857D02*
X9868929Y-12205000D01*
X9876071Y-12212143D01*
X9883214Y-12205000D01*
X9876071Y-12197857D01*
X9876071Y-12212143D01*
X9933214Y-12247857D02*
X10011786Y-12247857D01*
X9933214Y-12347857D01*
X10011786Y-12347857D01*
X10126071Y-12340714D02*
X10111786Y-12347857D01*
X10083214Y-12347857D01*
X10068929Y-12340714D01*
X10061786Y-12326428D01*
X10061786Y-12269286D01*
X10068929Y-12255000D01*
X10083214Y-12247857D01*
X10111786Y-12247857D01*
X10126071Y-12255000D01*
X10133214Y-12269286D01*
X10133214Y-12283571D01*
X10061786Y-12297857D01*
X10197500Y-12333571D02*
X10204643Y-12340714D01*
X10197500Y-12347857D01*
X10190357Y-12340714D01*
X10197500Y-12333571D01*
X10197500Y-12347857D01*
X10197500Y-12255000D02*
X10204643Y-12262143D01*
X10197500Y-12269286D01*
X10190357Y-12262143D01*
X10197500Y-12255000D01*
X10197500Y-12269286D01*
X10383214Y-12197857D02*
X10383214Y-12319286D01*
X10390357Y-12333571D01*
X10397500Y-12340714D01*
X10411786Y-12347857D01*
X10440357Y-12347857D01*
X10454643Y-12340714D01*
X10461786Y-12333571D01*
X10468929Y-12319286D01*
X10468929Y-12197857D01*
X10533214Y-12340714D02*
X10547500Y-12347857D01*
X10576071Y-12347857D01*
X10590357Y-12340714D01*
X10597500Y-12326428D01*
X10597500Y-12319286D01*
X10590357Y-12305000D01*
X10576071Y-12297857D01*
X10554643Y-12297857D01*
X10540357Y-12290714D01*
X10533214Y-12276428D01*
X10533214Y-12269286D01*
X10540357Y-12255000D01*
X10554643Y-12247857D01*
X10576071Y-12247857D01*
X10590357Y-12255000D01*
X10718929Y-12340714D02*
X10704643Y-12347857D01*
X10676071Y-12347857D01*
X10661786Y-12340714D01*
X10654643Y-12326428D01*
X10654643Y-12269286D01*
X10661786Y-12255000D01*
X10676071Y-12247857D01*
X10704643Y-12247857D01*
X10718929Y-12255000D01*
X10726071Y-12269286D01*
X10726071Y-12283571D01*
X10654643Y-12297857D01*
X10790357Y-12347857D02*
X10790357Y-12247857D01*
X10790357Y-12276428D02*
X10797500Y-12262143D01*
X10804643Y-12255000D01*
X10818929Y-12247857D01*
X10833214Y-12247857D01*
D10*
D11*
X18233214Y-12627857D02*
X18233214Y-12477857D01*
X18368929Y-12627857D02*
X18368929Y-12477857D01*
X18368929Y-12620714D02*
X18354643Y-12627857D01*
X18326071Y-12627857D01*
X18311786Y-12620714D01*
X18304643Y-12613571D01*
X18297500Y-12599286D01*
X18297500Y-12556428D01*
X18304643Y-12542143D01*
X18311786Y-12535000D01*
X18326071Y-12527857D01*
X18354643Y-12527857D01*
X18368929Y-12535000D01*
X18440357Y-12613571D02*
X18447500Y-12620714D01*
X18440357Y-12627857D01*
X18433214Y-12620714D01*
X18440357Y-12613571D01*
X18440357Y-12627857D01*
X18440357Y-12535000D02*
X18447500Y-12542143D01*
X18440357Y-12549286D01*
X18433214Y-12542143D01*
X18440357Y-12535000D01*
X18440357Y-12549286D01*
X18704643Y-12627857D02*
X18618929Y-12627857D01*
X18661786Y-12627857D02*
X18661786Y-12477857D01*
X18647500Y-12499286D01*
X18633214Y-12513571D01*
X18618929Y-12520714D01*
X18876071Y-12470714D02*
X18747500Y-12663571D01*
X19004643Y-12627857D02*
X18918929Y-12627857D01*
X18961786Y-12627857D02*
X18961786Y-12477857D01*
X18947500Y-12499286D01*
X18933214Y-12513571D01*
X18918929Y-12520714D01*
D10*
D11*
X9590000Y-11720000D02*
X20390000Y-11720000D01*
D10*
D13*
X9761238Y-11790476D02*
X9875524Y-11790476D01*
X9793381Y-11990476D02*
X9818381Y-11790476D01*
X9917190Y-11990476D02*
X9933857Y-11857143D01*
X9942190Y-11790476D02*
X9931476Y-11800000D01*
X9939810Y-11809524D01*
X9950524Y-11800000D01*
X9942190Y-11790476D01*
X9939810Y-11809524D01*
X10000524Y-11857143D02*
X10076714Y-11857143D01*
X10037429Y-11790476D02*
X10016000Y-11961905D01*
X10023143Y-11980952D01*
X10041000Y-11990476D01*
X10060048Y-11990476D01*
X10155286Y-11990476D02*
X10137429Y-11980952D01*
X10130286Y-11961905D01*
X10151714Y-11790476D01*
X10308857Y-11980952D02*
X10288619Y-11990476D01*
X10250524Y-11990476D01*
X10232667Y-11980952D01*
X10225524Y-11961905D01*
X10235048Y-11885714D01*
X10246952Y-11866667D01*
X10267190Y-11857143D01*
X10305286Y-11857143D01*
X10323143Y-11866667D01*
X10330286Y-11885714D01*
X10327905Y-11904762D01*
X10230286Y-11923809D01*
X10405286Y-11971428D02*
X10413619Y-11980952D01*
X10402905Y-11990476D01*
X10394571Y-11980952D01*
X10405286Y-11971428D01*
X10402905Y-11990476D01*
X10418381Y-11866667D02*
X10426714Y-11876190D01*
X10416000Y-11885714D01*
X10407667Y-11876190D01*
X10418381Y-11866667D01*
X10416000Y-11885714D01*
X10656476Y-11790476D02*
X10764810Y-11990476D01*
X10789810Y-11790476D02*
X10631476Y-11990476D01*
X10857667Y-11857143D02*
X10832667Y-12057143D01*
X10856476Y-11866667D02*
X10876714Y-11857143D01*
X10914810Y-11857143D01*
X10932667Y-11866667D01*
X10941000Y-11876190D01*
X10948143Y-11895238D01*
X10941000Y-11952381D01*
X10929095Y-11971428D01*
X10918381Y-11980952D01*
X10898143Y-11990476D01*
X10860048Y-11990476D01*
X10842190Y-11980952D01*
X11107667Y-11990476D02*
X11120762Y-11885714D01*
X11113619Y-11866667D01*
X11095762Y-11857143D01*
X11057667Y-11857143D01*
X11037429Y-11866667D01*
X11108857Y-11980952D02*
X11088619Y-11990476D01*
X11041000Y-11990476D01*
X11023143Y-11980952D01*
X11016000Y-11961905D01*
X11018381Y-11942857D01*
X11030286Y-11923809D01*
X11050524Y-11914286D01*
X11098143Y-11914286D01*
X11118381Y-11904762D01*
X11219571Y-11857143D02*
X11202905Y-11990476D01*
X11217190Y-11876190D02*
X11227905Y-11866667D01*
X11248143Y-11857143D01*
X11276714Y-11857143D01*
X11294571Y-11866667D01*
X11301714Y-11885714D01*
X11288619Y-11990476D01*
X11469571Y-11990476D02*
X11494571Y-11790476D01*
X11470762Y-11980952D02*
X11450524Y-11990476D01*
X11412428Y-11990476D01*
X11394571Y-11980952D01*
X11386238Y-11971428D01*
X11379095Y-11952381D01*
X11386238Y-11895238D01*
X11398143Y-11876190D01*
X11408857Y-11866667D01*
X11429095Y-11857143D01*
X11467190Y-11857143D01*
X11485048Y-11866667D01*
X11556476Y-11980952D02*
X11583857Y-11990476D01*
X11631476Y-11990476D01*
X11651714Y-11980952D01*
X11662428Y-11971428D01*
X11674333Y-11952381D01*
X11676714Y-11933333D01*
X11669571Y-11914286D01*
X11661238Y-11904762D01*
X11643381Y-11895238D01*
X11606476Y-11885714D01*
X11588619Y-11876190D01*
X11580286Y-11866667D01*
X11573143Y-11847619D01*
X11575524Y-11828571D01*
X11587428Y-11809524D01*
X11598143Y-11800000D01*
X11618381Y-11790476D01*
X11666000Y-11790476D01*
X11693381Y-11800000D01*
X11755286Y-11990476D02*
X11780286Y-11790476D01*
X11841000Y-11990476D02*
X11854095Y-11885714D01*
X11846952Y-11866667D01*
X11829095Y-11857143D01*
X11800524Y-11857143D01*
X11780286Y-11866667D01*
X11769571Y-11876190D01*
X11936238Y-11990476D02*
X11952905Y-11857143D01*
X11961238Y-11790476D02*
X11950524Y-11800000D01*
X11958857Y-11809524D01*
X11969571Y-11800000D01*
X11961238Y-11790476D01*
X11958857Y-11809524D01*
X12108857Y-11980952D02*
X12088619Y-11990476D01*
X12050524Y-11990476D01*
X12032667Y-11980952D01*
X12025524Y-11961905D01*
X12035048Y-11885714D01*
X12046952Y-11866667D01*
X12067190Y-11857143D01*
X12105286Y-11857143D01*
X12123143Y-11866667D01*
X12130286Y-11885714D01*
X12127905Y-11904762D01*
X12030286Y-11923809D01*
X12231476Y-11990476D02*
X12213619Y-11980952D01*
X12206476Y-11961905D01*
X12227905Y-11790476D01*
X12393381Y-11990476D02*
X12418381Y-11790476D01*
X12394571Y-11980952D02*
X12374333Y-11990476D01*
X12336238Y-11990476D01*
X12318381Y-11980952D01*
X12310048Y-11971428D01*
X12302905Y-11952381D01*
X12310048Y-11895238D01*
X12321952Y-11876190D01*
X12332667Y-11866667D01*
X12352905Y-11857143D01*
X12391000Y-11857143D01*
X12408857Y-11866667D01*
X12438619Y-12009524D02*
X12591000Y-12009524D01*
X12637428Y-11790476D02*
X12679095Y-11990476D01*
X12770762Y-11790476D01*
X12825524Y-11809524D02*
X12836238Y-11800000D01*
X12856476Y-11790476D01*
X12904095Y-11790476D01*
X12921952Y-11800000D01*
X12930286Y-11809524D01*
X12937428Y-11828571D01*
X12935048Y-11847619D01*
X12921952Y-11876190D01*
X12793381Y-11990476D01*
X12917190Y-11990476D01*
X12952905Y-12009524D02*
X13105286Y-12009524D01*
X13260048Y-11990476D02*
X13145762Y-11990476D01*
X13202905Y-11990476D02*
X13227905Y-11790476D01*
X13205286Y-11819048D01*
X13183857Y-11838095D01*
X13163619Y-11847619D01*
D10*
D11*
X9783214Y-11529286D02*
X9733214Y-11529286D01*
X9733214Y-11607857D02*
X9733214Y-11457857D01*
X9804643Y-11457857D01*
X9861786Y-11607857D02*
X9861786Y-11507857D01*
X9861786Y-11457857D02*
X9854643Y-11465000D01*
X9861786Y-11472143D01*
X9868929Y-11465000D01*
X9861786Y-11457857D01*
X9861786Y-11472143D01*
X9954643Y-11607857D02*
X9940357Y-11600714D01*
X9933214Y-11586428D01*
X9933214Y-11457857D01*
X10068929Y-11600714D02*
X10054643Y-11607857D01*
X10026071Y-11607857D01*
X10011786Y-11600714D01*
X10004643Y-11586428D01*
X10004643Y-11529286D01*
X10011786Y-11515000D01*
X10026071Y-11507857D01*
X10054643Y-11507857D01*
X10068929Y-11515000D01*
X10076071Y-11529286D01*
X10076071Y-11543571D01*
X10004643Y-11557857D01*
X10140357Y-11593571D02*
X10147500Y-11600714D01*
X10140357Y-11607857D01*
X10133214Y-11600714D01*
X10140357Y-11593571D01*
X10140357Y-11607857D01*
X10140357Y-11515000D02*
X10147500Y-11522143D01*
X10140357Y-11529286D01*
X10133214Y-11522143D01*
X10140357Y-11515000D01*
X10140357Y-11529286D01*
X10326071Y-11607857D02*
X10326071Y-11457857D01*
X10376071Y-11565000D01*
X10426071Y-11457857D01*
X10426071Y-11607857D01*
X10497500Y-11607857D02*
X10497500Y-11457857D01*
X10583214Y-11607857D02*
X10518929Y-11522143D01*
X10583214Y-11457857D02*
X10497500Y-11543571D01*
X10640357Y-11472143D02*
X10647500Y-11465000D01*
X10661786Y-11457857D01*
X10697500Y-11457857D01*
X10711786Y-11465000D01*
X10718929Y-11472143D01*
X10726071Y-11486428D01*
X10726071Y-11500714D01*
X10718929Y-11522143D01*
X10633214Y-11607857D01*
X10726071Y-11607857D01*
X10754643Y-11622143D02*
X10868929Y-11622143D01*
X10983214Y-11607857D02*
X10897500Y-11607857D01*
X10940357Y-11607857D02*
X10940357Y-11457857D01*
X10926071Y-11479286D01*
X10911786Y-11493571D01*
X10897500Y-11500714D01*
X11047500Y-11593571D02*
X11054643Y-11600714D01*
X11047500Y-11607857D01*
X11040357Y-11600714D01*
X11047500Y-11593571D01*
X11047500Y-11607857D01*
X11118929Y-11607857D02*
X11118929Y-11457857D01*
X11133214Y-11550714D02*
X11176071Y-11607857D01*
X11176071Y-11507857D02*
X11118929Y-11565000D01*
X11240357Y-11607857D02*
X11240357Y-11507857D01*
X11240357Y-11457857D02*
X11233214Y-11465000D01*
X11240357Y-11472143D01*
X11247500Y-11465000D01*
X11240357Y-11457857D01*
X11240357Y-11472143D01*
X11376071Y-11600714D02*
X11361786Y-11607857D01*
X11333214Y-11607857D01*
X11318928Y-11600714D01*
X11311786Y-11593571D01*
X11304643Y-11579286D01*
X11304643Y-11536428D01*
X11311786Y-11522143D01*
X11318928Y-11515000D01*
X11333214Y-11507857D01*
X11361786Y-11507857D01*
X11376071Y-11515000D01*
X11504643Y-11607857D02*
X11504643Y-11529286D01*
X11497500Y-11515000D01*
X11483214Y-11507857D01*
X11454643Y-11507857D01*
X11440357Y-11515000D01*
X11504643Y-11600714D02*
X11490357Y-11607857D01*
X11454643Y-11607857D01*
X11440357Y-11600714D01*
X11433214Y-11586428D01*
X11433214Y-11572143D01*
X11440357Y-11557857D01*
X11454643Y-11550714D01*
X11490357Y-11550714D01*
X11504643Y-11543571D01*
X11640357Y-11607857D02*
X11640357Y-11457857D01*
X11640357Y-11600714D02*
X11626071Y-11607857D01*
X11597500Y-11607857D01*
X11583214Y-11600714D01*
X11576071Y-11593571D01*
X11568928Y-11579286D01*
X11568928Y-11536428D01*
X11576071Y-11522143D01*
X11583214Y-11515000D01*
X11597500Y-11507857D01*
X11626071Y-11507857D01*
X11640357Y-11515000D01*
X11676071Y-11622143D02*
X11790357Y-11622143D01*
X11826071Y-11507857D02*
X11826071Y-11657857D01*
X11826071Y-11515000D02*
X11840357Y-11507857D01*
X11868928Y-11507857D01*
X11883214Y-11515000D01*
X11890357Y-11522143D01*
X11897500Y-11536428D01*
X11897500Y-11579286D01*
X11890357Y-11593571D01*
X11883214Y-11600714D01*
X11868928Y-11607857D01*
X11840357Y-11607857D01*
X11826071Y-11600714D01*
X12026071Y-11600714D02*
X12011786Y-11607857D01*
X11983214Y-11607857D01*
X11968928Y-11600714D01*
X11961786Y-11593571D01*
X11954643Y-11579286D01*
X11954643Y-11536428D01*
X11961786Y-11522143D01*
X11968928Y-11515000D01*
X11983214Y-11507857D01*
X12011786Y-11507857D01*
X12026071Y-11515000D01*
X12090357Y-11607857D02*
X12090357Y-11457857D01*
X12090357Y-11515000D02*
X12104643Y-11507857D01*
X12133214Y-11507857D01*
X12147500Y-11515000D01*
X12154643Y-11522143D01*
X12161786Y-11536428D01*
X12161786Y-11579286D01*
X12154643Y-11593571D01*
X12147500Y-11600714D01*
X12133214Y-11607857D01*
X12104643Y-11607857D01*
X12090357Y-11600714D01*
D10*
D11*
X9590000Y-11120000D02*
X20390000Y-11120000D01*
D10*
D11*
X9726071Y-11330714D02*
X9747500Y-11337857D01*
X9783214Y-11337857D01*
X9797500Y-11330714D01*
X9804643Y-11323571D01*
X9811786Y-11309286D01*
X9811786Y-11295000D01*
X9804643Y-11280714D01*
X9797500Y-11273571D01*
X9783214Y-11266428D01*
X9754643Y-11259286D01*
X9740357Y-11252143D01*
X9733214Y-11245000D01*
X9726071Y-11230714D01*
X9726071Y-11216428D01*
X9733214Y-11202143D01*
X9740357Y-11195000D01*
X9754643Y-11187857D01*
X9790357Y-11187857D01*
X9811786Y-11195000D01*
X9876071Y-11337857D02*
X9876071Y-11187857D01*
X9940357Y-11337857D02*
X9940357Y-11259286D01*
X9933214Y-11245000D01*
X9918929Y-11237857D01*
X9897500Y-11237857D01*
X9883214Y-11245000D01*
X9876071Y-11252143D01*
X10068929Y-11330714D02*
X10054643Y-11337857D01*
X10026071Y-11337857D01*
X10011786Y-11330714D01*
X10004643Y-11316428D01*
X10004643Y-11259286D01*
X10011786Y-11245000D01*
X10026071Y-11237857D01*
X10054643Y-11237857D01*
X10068929Y-11245000D01*
X10076071Y-11259286D01*
X10076071Y-11273571D01*
X10004643Y-11287857D01*
X10197500Y-11330714D02*
X10183214Y-11337857D01*
X10154643Y-11337857D01*
X10140357Y-11330714D01*
X10133214Y-11316428D01*
X10133214Y-11259286D01*
X10140357Y-11245000D01*
X10154643Y-11237857D01*
X10183214Y-11237857D01*
X10197500Y-11245000D01*
X10204643Y-11259286D01*
X10204643Y-11273571D01*
X10133214Y-11287857D01*
X10247500Y-11237857D02*
X10304643Y-11237857D01*
X10268929Y-11187857D02*
X10268929Y-11316428D01*
X10276071Y-11330714D01*
X10290357Y-11337857D01*
X10304643Y-11337857D01*
X10354643Y-11323571D02*
X10361786Y-11330714D01*
X10354643Y-11337857D01*
X10347500Y-11330714D01*
X10354643Y-11323571D01*
X10354643Y-11337857D01*
X10354643Y-11245000D02*
X10361786Y-11252143D01*
X10354643Y-11259286D01*
X10347500Y-11252143D01*
X10354643Y-11245000D01*
X10354643Y-11259286D01*
D10*
D12*
X9830929Y-11023571D02*
X9823786Y-11030714D01*
X9802357Y-11037857D01*
X9788071Y-11037857D01*
X9766643Y-11030714D01*
X9752357Y-11016429D01*
X9745214Y-11002143D01*
X9738071Y-10973571D01*
X9738071Y-10952143D01*
X9745214Y-10923571D01*
X9752357Y-10909286D01*
X9766643Y-10895000D01*
X9788071Y-10887857D01*
X9802357Y-10887857D01*
X9823786Y-10895000D01*
X9830929Y-10902143D01*
X9895214Y-11037857D02*
X9895214Y-10887857D01*
X9930929Y-10887857D01*
X9952357Y-10895000D01*
X9966643Y-10909286D01*
X9973786Y-10923571D01*
X9980929Y-10952143D01*
X9980929Y-10973571D01*
X9973786Y-11002143D01*
X9966643Y-11016429D01*
X9952357Y-11030714D01*
X9930929Y-11037857D01*
X9895214Y-11037857D01*
X10130929Y-11037857D02*
X10080929Y-10966429D01*
X10045214Y-11037857D02*
X10045214Y-10887857D01*
X10102357Y-10887857D01*
X10116643Y-10895000D01*
X10123786Y-10902143D01*
X10130929Y-10916429D01*
X10130929Y-10937857D01*
X10123786Y-10952143D01*
X10116643Y-10959286D01*
X10102357Y-10966429D01*
X10045214Y-10966429D01*
X10159500Y-11052143D02*
X10273786Y-11052143D01*
X10295214Y-10887857D02*
X10395214Y-11037857D01*
X10395214Y-10887857D02*
X10295214Y-11037857D01*
X10516643Y-11037857D02*
X10516643Y-10959286D01*
X10509500Y-10945000D01*
X10495214Y-10937857D01*
X10466643Y-10937857D01*
X10452357Y-10945000D01*
X10516643Y-11030714D02*
X10502357Y-11037857D01*
X10466643Y-11037857D01*
X10452357Y-11030714D01*
X10445214Y-11016429D01*
X10445214Y-11002143D01*
X10452357Y-10987857D01*
X10466643Y-10980714D01*
X10502357Y-10980714D01*
X10516643Y-10973571D01*
X10573786Y-10937857D02*
X10609500Y-11037857D01*
X10645214Y-10937857D01*
X10702357Y-11037857D02*
X10702357Y-10937857D01*
X10702357Y-10887857D02*
X10695214Y-10895000D01*
X10702357Y-10902143D01*
X10709500Y-10895000D01*
X10702357Y-10887857D01*
X10702357Y-10902143D01*
X10830929Y-11030714D02*
X10816643Y-11037857D01*
X10788071Y-11037857D01*
X10773786Y-11030714D01*
X10766643Y-11016429D01*
X10766643Y-10959286D01*
X10773786Y-10945000D01*
X10788071Y-10937857D01*
X10816643Y-10937857D01*
X10830929Y-10945000D01*
X10838071Y-10959286D01*
X10838071Y-10973571D01*
X10766643Y-10987857D01*
X10902357Y-11037857D02*
X10902357Y-10937857D01*
X10902357Y-10966429D02*
X10909500Y-10952143D01*
X10916643Y-10945000D01*
X10930929Y-10937857D01*
X10945214Y-10937857D01*
D10*
D11*
X11590000Y-12120000D02*
X11590000Y-12420000D01*
D10*
D11*
X17990000Y-12120000D02*
X17990000Y-12770000D01*
M02*
