M48
; DRILL file {KiCad (5.1.9)-1} date 07/03/21 12:35:35
; FORMAT={-:-/ absolute / inch / decimal}
; #@! TF.CreationDate,2021-07-03T12:35:35-04:00
; #@! TF.GenerationSoftware,Kicad,Pcbnew,(5.1.9)-1
; #@! TF.FileFunction,Plated,1,2,PTH
FMAT,2
INCH
T1C0.0150
T2C0.0400
%
G90
G05
T1
X1.9Y-3.05
X1.95Y-1.95
X1.95Y-2.65
X2.0Y-1.95
X2.0Y-2.7
X2.05Y-1.95
X2.1Y-1.95
X2.15Y-1.7
X2.55Y-2.55
X2.75Y-2.61
X2.775Y-2.65
T2
X0.95Y-1.75
X0.95Y-1.85
X0.95Y-1.95
X0.95Y-2.05
X0.95Y-2.15
X0.95Y-2.25
X0.95Y-2.35
X0.95Y-2.45
X0.95Y-2.65
X0.95Y-2.75
X0.95Y-2.85
X0.95Y-2.95
X0.95Y-3.05
X0.95Y-3.15
X1.1Y-2.55
X1.3Y-2.55
X1.35Y-0.75
X1.35Y-3.15
X1.35Y-3.25
X1.4Y-1.95
X1.4Y-2.05
X1.45Y-0.75
X1.5Y-2.15
X1.5Y-2.35
X1.5Y-2.75
X1.5Y-2.95
X1.5Y-3.15
X1.5Y-3.25
X1.55Y-0.75
X1.65Y-0.75
X1.65Y-3.15
X1.65Y-3.25
X1.7Y-2.55
X1.75Y-0.75
X1.85Y-0.75
X1.85Y-3.15
X1.85Y-3.25
X1.9Y-2.55
X1.95Y-0.75
X1.95Y-3.15
X1.95Y-3.25
X2.05Y-3.15
X2.05Y-3.25
X2.15Y-2.15
X2.15Y-2.25
X2.15Y-2.35
X2.15Y-2.45
X2.15Y-2.55
X2.15Y-2.65
X2.15Y-2.85
X2.15Y-2.95
X2.15Y-3.05
X2.15Y-3.15
X2.15Y-3.25
X2.25Y-2.15
X2.35Y-2.4
X2.35Y-2.8
X2.45Y-1.45
X2.45Y-1.65
X2.45Y-1.85
X2.45Y-2.05
X2.55Y-1.45
X2.55Y-1.65
X2.55Y-1.85
X2.55Y-2.05
X2.55Y-2.4
X2.55Y-2.8
X2.65Y-0.8
X2.65Y-0.9
X2.65Y-1.1
X2.65Y-1.45
X2.65Y-1.65
X2.65Y-1.85
X2.65Y-2.05
X2.85Y-1.4
X2.85Y-1.5
X2.85Y-1.6
X2.85Y-1.7
X2.85Y-1.8
X2.85Y-1.9
X2.85Y-2.0
X2.85Y-2.1
X2.85Y-2.2
X2.85Y-2.3
X2.85Y-2.45
X2.85Y-2.55
X2.85Y-2.65
X2.85Y-2.75
X2.85Y-2.85
X2.85Y-2.95
X2.85Y-3.05
X2.85Y-3.15
T0
M30
