M48
; DRILL file {KiCad (5.1.9)-1} date 06/09/21 21:12:33
; FORMAT={-:-/ absolute / inch / decimal}
; #@! TF.CreationDate,2021-06-09T21:12:33-04:00
; #@! TF.GenerationSoftware,Kicad,Pcbnew,(5.1.9)-1
; #@! TF.FileFunction,Plated,1,2,PTH
FMAT,2
INCH
T1C0.0150
T2C0.0400
T3C0.0550
%
G90
G05
T1
X1.9Y-3.05
X1.95Y-1.95
X1.95Y-2.65
X2.0Y-1.95
X2.0Y-2.7
X2.05Y-1.95
X2.1Y-1.95
X2.15Y-1.7
X2.35Y-3.05
X2.375Y-3.025
X2.375Y-3.075
X2.375Y-3.15
X2.4Y-3.125
X2.4Y-3.175
X2.5Y-3.05
X2.5Y-3.15
X2.55Y-2.55
X2.75Y-2.61
X2.775Y-2.65
T2
X0.95Y-1.75
X0.95Y-1.85
X0.95Y-1.95
X0.95Y-2.05
X0.95Y-2.15
X0.95Y-2.25
X0.95Y-2.35
X0.95Y-2.45
X0.95Y-2.65
X0.95Y-2.75
X0.95Y-2.85
X0.95Y-2.95
X0.95Y-3.05
X0.95Y-3.15
X0.95Y-3.25
X0.95Y-3.35
X0.95Y-3.55
X0.95Y-3.65
X0.95Y-3.75
X0.95Y-3.85
X0.95Y-3.95
X0.95Y-4.05
X0.95Y-4.15
X0.95Y-4.25
X1.05Y-3.55
X1.05Y-3.65
X1.05Y-3.75
X1.05Y-3.85
X1.05Y-3.95
X1.05Y-4.05
X1.05Y-4.15
X1.05Y-4.25
X1.1Y-2.55
X1.15Y-3.45
X1.15Y-3.55
X1.15Y-3.65
X1.15Y-3.75
X1.15Y-3.85
X1.15Y-3.95
X1.15Y-4.05
X1.15Y-4.15
X1.15Y-4.25
X1.15Y-4.35
X1.15Y-4.45
X1.25Y-3.45
X1.25Y-3.55
X1.25Y-3.65
X1.25Y-3.75
X1.25Y-3.85
X1.25Y-3.95
X1.25Y-4.05
X1.25Y-4.15
X1.25Y-4.25
X1.25Y-4.35
X1.25Y-4.45
X1.3Y-2.55
X1.35Y-0.75
X1.35Y-3.15
X1.35Y-3.25
X1.35Y-3.45
X1.35Y-3.55
X1.35Y-3.65
X1.35Y-3.75
X1.35Y-3.85
X1.35Y-3.95
X1.35Y-4.05
X1.35Y-4.15
X1.35Y-4.25
X1.35Y-4.35
X1.35Y-4.45
X1.4Y-1.95
X1.4Y-2.05
X1.45Y-0.75
X1.45Y-3.45
X1.45Y-3.55
X1.45Y-3.65
X1.45Y-3.75
X1.45Y-3.85
X1.45Y-3.95
X1.45Y-4.05
X1.45Y-4.15
X1.45Y-4.25
X1.45Y-4.35
X1.45Y-4.45
X1.5Y-2.15
X1.5Y-2.35
X1.5Y-2.75
X1.5Y-2.95
X1.5Y-3.15
X1.5Y-3.25
X1.55Y-0.75
X1.55Y-3.45
X1.55Y-3.55
X1.55Y-3.65
X1.55Y-3.75
X1.55Y-3.85
X1.55Y-3.95
X1.55Y-4.05
X1.55Y-4.15
X1.55Y-4.25
X1.55Y-4.35
X1.55Y-4.45
X1.65Y-0.75
X1.65Y-3.15
X1.65Y-3.25
X1.65Y-3.45
X1.65Y-3.55
X1.65Y-3.65
X1.65Y-3.75
X1.65Y-3.85
X1.65Y-3.95
X1.65Y-4.05
X1.65Y-4.15
X1.65Y-4.25
X1.65Y-4.35
X1.65Y-4.45
X1.7Y-2.55
X1.75Y-0.75
X1.75Y-3.45
X1.75Y-3.55
X1.75Y-3.65
X1.75Y-3.75
X1.75Y-3.85
X1.75Y-3.95
X1.75Y-4.05
X1.75Y-4.15
X1.75Y-4.25
X1.75Y-4.35
X1.75Y-4.45
X1.85Y-0.75
X1.85Y-3.15
X1.85Y-3.25
X1.85Y-3.45
X1.85Y-3.55
X1.85Y-3.65
X1.85Y-3.75
X1.85Y-3.85
X1.85Y-3.95
X1.85Y-4.05
X1.85Y-4.15
X1.85Y-4.25
X1.85Y-4.35
X1.85Y-4.45
X1.9Y-2.55
X1.95Y-0.75
X1.95Y-3.15
X1.95Y-3.25
X1.95Y-3.45
X1.95Y-3.55
X1.95Y-3.65
X1.95Y-3.75
X1.95Y-3.85
X1.95Y-3.95
X1.95Y-4.05
X1.95Y-4.15
X1.95Y-4.25
X1.95Y-4.35
X1.95Y-4.45
X2.05Y-3.15
X2.05Y-3.25
X2.05Y-3.45
X2.05Y-3.55
X2.05Y-3.65
X2.05Y-3.75
X2.05Y-3.85
X2.05Y-3.95
X2.05Y-4.05
X2.05Y-4.15
X2.05Y-4.25
X2.05Y-4.35
X2.05Y-4.45
X2.15Y-2.15
X2.15Y-2.25
X2.15Y-2.35
X2.15Y-2.45
X2.15Y-2.55
X2.15Y-2.65
X2.15Y-2.85
X2.15Y-2.95
X2.15Y-3.05
X2.15Y-3.15
X2.15Y-3.25
X2.15Y-4.35
X2.15Y-4.45
X2.25Y-2.15
X2.25Y-3.75
X2.25Y-3.85
X2.25Y-4.05
X2.25Y-4.15
X2.25Y-4.35
X2.25Y-4.45
X2.35Y-2.4
X2.35Y-2.8
X2.35Y-4.05
X2.35Y-4.15
X2.35Y-4.35
X2.35Y-4.45
X2.45Y-1.45
X2.45Y-1.65
X2.45Y-1.85
X2.45Y-2.05
X2.45Y-4.05
X2.45Y-4.15
X2.45Y-4.35
X2.45Y-4.45
X2.475Y-3.85
X2.55Y-1.45
X2.55Y-1.65
X2.55Y-1.85
X2.55Y-2.05
X2.55Y-2.4
X2.55Y-2.8
X2.55Y-4.35
X2.55Y-4.45
X2.575Y-3.85
X2.65Y-0.8
X2.65Y-0.9
X2.65Y-1.1
X2.65Y-1.45
X2.65Y-1.65
X2.65Y-1.85
X2.65Y-2.05
X2.65Y-4.35
X2.65Y-4.45
X2.675Y-3.85
X2.75Y-4.35
X2.75Y-4.45
X2.85Y-1.4
X2.85Y-1.5
X2.85Y-1.6
X2.85Y-1.7
X2.85Y-1.8
X2.85Y-1.9
X2.85Y-2.0
X2.85Y-2.1
X2.85Y-2.2
X2.85Y-2.3
X2.85Y-2.45
X2.85Y-2.55
X2.85Y-2.65
X2.85Y-2.75
X2.85Y-2.85
X2.85Y-2.95
X2.85Y-3.05
X2.85Y-3.15
X2.85Y-3.35
X2.85Y-3.45
X2.85Y-3.55
X2.85Y-3.65
X2.85Y-3.75
X2.85Y-3.85
X2.85Y-3.95
X2.85Y-4.05
X2.85Y-4.35
X2.85Y-4.45
T3
X2.15Y-3.45
X2.65Y-3.1
T0
M30
